<svg width="80" height="80" viewBox="0 0 80 80" fill="none" xmlns="http://www.w3.org/2000/svg">
<path d="M23.8154 38.4615L44.1231 0H64.7385L46.5846 27.3846H64.7385L16.1231 80L37.6615 38.4615H23.8154Z" fill="#7EA629"/>
<path d="M33.8692 3.60425C16.4556 6.57506 3.2 21.7395 3.2 39.9999C3.2 51.2569 8.23757 61.3373 16.1813 68.1097L18.7046 62.0905C12.9378 56.4981 9.35384 48.6675 9.35384 39.9999C9.35384 26.5536 17.979 15.1218 29.9984 10.9353L33.8692 3.60425Z" fill="#4F7302"/>
<path d="M33.8692 3.60425C16.4556 6.57506 3.2 21.7395 3.2 39.9999C3.2 51.2569 8.23757 61.3373 16.1813 68.1097L18.7046 62.0905C12.9378 56.4981 9.35384 48.6675 9.35384 39.9999C9.35384 26.5536 17.979 15.1218 29.9984 10.9353L33.8692 3.60425Z" fill="black" fill-opacity="0.5"/>
<path d="M33.8 70.1188C35.8407 70.5451 37.9557 70.7691 40.1231 70.7691C57.1165 70.7691 70.8923 56.9933 70.8923 39.9999C70.8923 31.3885 67.3547 23.6033 61.6535 18.0184L65.1053 12.8114C72.4459 19.5598 77.0462 29.2427 77.0462 39.9999C77.0462 60.392 60.5151 76.923 40.1231 76.923C36.0849 76.923 32.1981 76.2747 28.5611 75.0766L33.8 70.1188Z" fill="#4F7302"/>
<path d="M33.8 70.1188C35.8407 70.5451 37.9557 70.7691 40.1231 70.7691C57.1165 70.7691 70.8923 56.9933 70.8923 39.9999C70.8923 31.3885 67.3547 23.6033 61.6535 18.0184L65.1053 12.8114C72.4459 19.5598 77.0462 29.2427 77.0462 39.9999C77.0462 60.392 60.5151 76.923 40.1231 76.923C36.0849 76.923 32.1981 76.2747 28.5611 75.0766L33.8 70.1188Z" fill="black" fill-opacity="0.5"/>
</svg>
