<svg width="791" height="701" viewBox="0 0 791 701" fill="none" xmlns="http://www.w3.org/2000/svg">
<g clip-path="url(#clip0_19_211)">
<mask id="mask0_19_211" style="mask-type:alpha" maskUnits="userSpaceOnUse" x="40" y="-229" width="931" height="930">
<circle cx="505.829" cy="236" r="465" fill="#F2F2F2"/>
</mask>
<g mask="url(#mask0_19_211)">
<rect x="40.8287" y="-229" width="930" height="930" fill="#F2F2F2"/>
<path d="M396.449 104.656C489.449 117.156 473.949 145.156 458.449 213.656C428.949 311.156 324.949 417.258 204.949 382.156C131.449 360.656 85.9486 366.656 29.4486 391.656C-12.0695 410.027 -30.0513 350.656 5.44865 316.656L5.90493 316.219C41.1302 282.48 62.3413 262.164 153.449 264.156C244.949 266.156 270.449 192.656 200.949 188.656C141.449 185.231 60.9487 188.656 13.4487 213.656C-28.1637 235.557 -33.5581 186.783 36.4489 158.156C170.949 103.156 303.449 92.1559 396.449 104.656Z" fill="white" fill-opacity="0.5"/>
<path d="M676.492 276.07C756.492 240.57 810.992 316.07 825.492 385.07V643.57C825.492 653.57 681.492 706.403 609.492 731.57L193.492 681.07C139.658 617.403 13.6272 431.291 53.491 416.07C80.9905 405.57 154.491 378.07 226.992 444.07C312.281 521.712 367.992 346.265 508.492 385.07C613.492 414.07 596.492 311.57 676.492 276.07Z" fill="white"/>
<path d="M426.829 421C486.829 425 518.829 475.5 530.329 516.5C542.829 560 522.829 580 453.829 606C398.629 626.8 242.829 604 171.829 590C134.829 570.667 63.8287 518.6 75.8287 465C90.8287 398 173.829 392 195.829 442C217.829 492 246.829 496 283.829 485C320.829 474 353.829 416.133 426.829 421Z" fill="#B0D959" fill-opacity="0.5"/>
<path d="M52.329 510.944C340.329 570.5 536.329 373.5 806.829 410.5C941.329 428.897 924.829 500.5 924.829 500.5L806.829 732H251.829C135.829 644.5 69.8287 567.5 52.329 510.944Z" fill="url(#paint0_linear_19_211)"/>
<path d="M320.829 614.001C330.829 632.001 361.329 676.501 376.329 689.501C394.495 694.667 433.029 704.101 441.829 700.501C452.829 696.001 475.329 685.001 486.329 680.001C497.329 675.001 495.829 670.501 485.329 670.501C474.829 670.501 461.329 673 441.829 680.001C452.829 674.001 475.767 656.066 487.329 644.001C498.829 632 491.829 630.501 479.829 634.501C467.829 638.501 445.329 652.001 427.329 665.501C436.829 651.001 445.329 639.001 459.829 613.501C474.329 588.001 457.02 598.396 448.829 604.001C439.329 610.5 419.329 634.501 408.829 654.501C406.829 641.001 408.887 566.58 409.329 561.501C410.329 550 406.524 539 400.329 561.501C390.829 596.001 393.329 632.501 393.329 658.001C387.829 648.501 365.829 591.501 364.329 586.501C362.829 581.501 356.829 567.001 357.829 588.501C358.829 610.001 372.829 650.001 382.329 670.501C374.829 663.001 330.329 611.001 326.829 607.501C321.917 602.589 310.829 596.001 320.829 614.001Z" fill="#B0D959"/>
<path d="M727.829 598C758.629 620 808.299 611 834.329 598C831.9 577.647 840.829 497.5 855.329 455C857.553 420.145 845.297 402.384 834.329 416.5C808.299 450 807.223 423.687 808.299 402.5C811.27 344 799.322 335.122 797.829 329C792.829 308.5 770.329 301 756.829 322C743.329 343 750.329 385.5 754.829 411.5C759.329 437.5 736.829 427.5 734.329 416.5C731.829 405.5 716.329 391.5 713.329 422.5C710.329 453.5 731.329 482 736.829 497.5C742.329 513 730.829 509 725.829 505.5C720.829 502 717.829 495.5 713.329 484C708.829 472.5 695.829 471.5 692.829 484C689.829 496.5 692.829 513 702.829 524.5C712.829 536 702.829 544.5 692.829 536C682.829 527.5 674.829 524.5 670.829 536C666.829 547.5 689.329 570.5 727.829 598Z" fill="url(#paint1_linear_19_211)"/>
<path d="M546.829 360.5C537.329 332 568.829 337 580.329 348.5L626.329 543.5C617.329 543.833 594.129 541.5 573.329 529.5C547.329 514.5 567.329 507.5 573.329 506.5C579.329 505.5 585.329 505.5 584.829 501C584.329 496.5 562.829 492.5 554.829 490.5C546.829 488.5 531.329 482 534.329 472C537.329 462 549.829 463.5 564.829 465C579.829 466.5 573.829 461 567.329 458C560.829 455 556.829 453 534.329 447C511.829 441 524.829 421.5 546.829 423.5C568.829 425.5 555.829 415.5 546.829 412.5C537.829 409.5 534.329 410.5 517.329 398C500.329 385.5 521.829 380 534.329 384.5C546.829 389 556.329 389 546.829 360.5Z" fill="url(#paint2_linear_19_211)"/>
<path d="M680.829 253C664.829 261.8 651.495 294.333 646.829 309.5C642.329 353.167 651.329 370 658.829 389C686.829 345 738.83 322.312 754.329 316.5C766.329 312 766.829 307.029 754.329 308.5C737.329 310.5 720.329 316.5 701.829 325C718.829 305.5 751.829 295 759.829 293C767.829 291 775.329 283 757.329 285C723.829 288.722 700.829 304 689.829 314.5C699.829 290.1 720.329 272.333 729.329 266.5C734.329 263.5 734.329 259.73 724.829 263C694.329 273.5 672.329 309.5 661.829 331C660.829 294.5 679.329 259.5 682.329 255.5C685.329 251.5 684.329 251.5 680.829 253Z" fill="url(#paint3_linear_19_211)"/>
<path d="M640.829 133.5C708.829 203 777.329 146.5 806.329 111.5C835.329 76.5 889.375 96.1206 916.829 56.5C954.023 2.82233 917.666 -40.5143 879.145 -86.4303L877.829 -88C768.685 -218.132 691.329 -257.667 472.829 -246.5C254.329 -235.333 86.682 -64.0481 56.8288 -23C16.8288 32 45.8288 55 94.3288 49C142.829 43 188.829 46.5 235.829 109.5C303.861 200.692 369.829 149 395.329 121C420.829 93 417.829 75 518.829 76.5C619.829 78 602.329 -4.5 604.829 -21.5C607.329 -38.5 616.829 -43 620.829 -23C624.829 -3 622.829 15 620.829 32C618.774 49.4651 607.073 99 640.829 133.5Z" fill="url(#paint4_linear_19_211)"/>
<path d="M289.829 61.4999C416.629 124.7 491.329 14.0001 491.329 -37.9999C491.329 -90.283 537.328 -136 632.328 -98.5001C699.02 -72.1744 810.328 -150.5 670.828 -212C547.328 -266.446 273.329 -308 105.829 -62C57.6948 8.69214 45.3287 33.9999 79.8287 33.9999C114.329 33.9999 191.329 12.4053 289.829 61.4999Z" fill="url(#paint5_linear_19_211)"/>
<path d="M561.328 222.5C570.928 374.9 608.662 610.333 626.328 709C655.995 713.667 714.328 713.5 710.328 675.5C705.328 628 638.328 206 634.828 187.5C644.828 173 658.828 148 668.328 129.5C690.328 118.5 817.328 72.5 791.828 74C766.328 75.5 722.828 84 690.328 91.5C699.928 77.1 727.495 19.1667 743.829 -11.9999C751.428 -26.5 751.229 -40.5 728.829 -18.5C700.829 9 612.328 119 594.828 148C575.628 110.4 451.829 -58 407.829 -88C389.841 -100.264 379.429 -86.8 395.829 -70C416.329 -49 468.828 45.5 480.328 68C453.328 50.5 418.328 31.0001 400.828 23.0001C390.828 16.2001 299.829 -13.9999 274.329 -22.4999C274.329 -22.4999 226.829 -29.9999 289.829 -3.60124C238.959 -2.12203 163.881 5.34058e-05 151.829 5.34058e-05C133.329 5.34058e-05 138.829 7.50007 151.829 10.5001C161.861 12.8151 241.329 20.0001 274.329 23.0001C265.829 34.0001 249.329 56.5 238.329 75.5C266.729 55.1 288.162 32.0001 295.329 23.0001H319.329C327.329 28.0001 369.829 41.5 387.829 45.5C400.828 58.5 491.328 111 518.328 123C526.328 148.5 540.328 184 561.328 222.5Z" fill="#2E2D35"/>
<path d="M487.829 532.067C466.535 527.95 443.401 525.9 418.329 526.5C429.152 549.275 440.37 569.335 451.835 587C458.829 585 470.329 581 476.829 579.5C475.329 583.5 466.329 595 461.32 601C469.078 611.962 476.929 621.889 484.829 630.877C493.329 623.5 505.829 614.5 511.329 611C509.329 617 501.329 633 494.793 641.7C513.159 660.725 531.686 674.93 549.829 685.501C558.829 678 571.329 669 580.329 665.5C576.829 671 569.329 685 566.329 694.204C619.575 719.435 667.909 715.563 696.829 714C694.512 704.432 689.457 690.929 681.324 675.5C675.829 675 660.829 675.5 652.329 672.5C655.829 668 666.829 661 670.898 657.5C660.473 641.002 646.878 623.342 629.778 606.5C626.829 609.5 613.829 621.5 604.829 626.5C605.829 619.5 613.329 599 615.65 593.5C601.215 581.102 584.698 569.477 565.95 559.5C563.829 563 557.829 574.5 552.329 581C550.329 574.5 550.329 555.5 549.829 551.596C534.941 544.898 518.795 539.249 501.329 535.007C499.329 539 494.329 550 490.329 555.845C489.829 548 488.329 535.5 487.829 532.067Z" fill="url(#paint6_linear_19_211)"/>
<path d="M750.329 452C768.275 468 795.829 506.242 806.329 535.5C816.829 564.759 833.429 660.9 797.829 640.5C753.329 615 688.829 638 681.829 644C676.555 648.521 668.562 648.5 676.829 640.5C692.329 625.5 716.829 615.5 740.329 610.5C682.829 580 636.829 582.5 628.329 583.5C619.829 584.5 619.688 580.714 626.329 578.5C671.329 563.5 716.329 577 744.329 589C676.329 515.5 601.329 534 592.829 535.5C584.329 537 587.829 532.134 592.829 529.5C648.829 500.001 721.329 537.5 744.329 554.5C735.329 534 699.329 500 693.829 496.5C688.329 493 687.829 488.75 695.829 492C743.829 511.5 777.829 565.5 797.829 599C787.829 532 747.329 461.5 744.329 457.5C740.204 452 734.941 438.281 750.329 452Z" fill="url(#paint7_linear_19_211)"/>
<path d="M553.829 168C489.829 153 352.829 196 339.329 211.5C328.329 218.704 301.329 248 310.829 276.5C320.329 305 365.829 301 376.829 300C387.829 299 433.829 282 469.329 306.5C504.829 331 546.329 330.5 590.829 276.5C635.329 222.5 617.829 183 553.829 168Z" fill="#4F7302"/>
<path d="M549.829 176.5C431.897 128.454 340.829 166.5 300.329 194C262.829 219.463 283.829 247.554 319.329 237C350.329 227.784 358.829 222.5 407.329 252.5C455.829 282.5 477.829 269 494.829 246.5C511.829 224 525.679 216.196 543.329 222.5C564.329 230 617.329 204 549.829 176.5Z" fill="url(#paint8_linear_19_211)"/>
<path fill-rule="evenodd" clip-rule="evenodd" d="M406.205 349.925C404.346 366.8 402.936 392.308 404.288 420.208L404.305 420.281L404.292 420.284C404.839 431.538 405.836 443.179 407.434 454.799C408.204 423.975 418.543 396.743 425.489 382.787C422.631 366.741 424.977 332.139 455.829 309C457.795 325.226 459.762 358.374 427.496 383.245C419.576 399.002 406.871 432.857 409.826 469.42L409.782 469.423C411.274 477.5 413.093 485.481 415.291 493.227C416.68 498.125 417.959 503.236 419.134 508.513C419.625 497.618 422.217 491.474 424.029 488.126C421.897 457.146 438.139 441.184 446.829 437C448.309 476.969 434.207 485.772 424.705 491.282C422.633 495.968 420.283 504.366 421.295 518.988C426.109 544.213 428.831 572.318 430.202 598.704C434.402 563.09 448.307 529.344 459.777 503.363C458.213 496.842 457.899 488.104 458.129 480.001C458.32 473.266 458.89 466.904 459.459 462.508C455.723 442.952 455.864 409.532 480.329 395.5C484.829 407.5 487.329 430.5 475.829 441.5C466.629 450.3 461.995 463.167 460.829 468.5L460.822 468.474C460.507 471.937 460.246 475.924 460.128 480.057C459.931 487.019 460.144 494.323 461.171 500.213C467.234 486.551 473.121 473.788 477.79 465.752C477.465 455.938 483.542 435.796 510.829 428C510.829 441.61 507.048 455.22 480.194 465.615C475.197 473.917 468.575 488.397 461.743 503.86C451.133 527.878 438.497 558.367 433.326 590.75C438.112 577.753 445.128 566.579 452.529 557.518C460.832 547.352 469.648 539.811 476.403 535.314C482.84 519.277 505.788 490.546 546.829 502.5C542.717 505.241 539.602 508.902 536.343 512.733C531.279 518.685 525.867 525.045 515.829 529C504.4 533.502 488.899 535.081 479.968 535.424C473.221 539.46 463.346 547.437 454.078 558.783C444.724 570.235 436.026 585.076 431.782 602.698C431.314 607.486 431.03 612.303 430.959 617.134C432.144 656.051 430.552 688.487 428.811 697.686L426.846 697.314C428.492 688.612 430.051 657.98 429.058 620.605L428.949 620.618C422.621 567.39 398.749 523.517 385.688 506.805C371.654 505.006 345.329 498.074 345.329 450.5C357.469 454.93 382.529 472.052 387.125 505.397C399.064 520.593 419.763 557.929 428.474 604.342C427.212 576.495 424.471 546.382 419.37 519.57L419.331 519.573C419.323 519.463 419.316 519.354 419.308 519.245C417.601 510.316 415.632 501.757 413.367 493.773C410.28 482.892 407.935 471.555 406.19 460.145L405.854 460.222C404.91 456.071 402.254 452.228 399.232 449.08C397.26 447.025 395.166 445.301 393.368 444.017L392.711 444.025L392.709 444.025C381.677 444.153 366.11 444.333 358.829 432.5C352.478 422.18 351.169 421.313 348.648 419.643C347.993 419.209 347.256 418.722 346.329 418C359.66 417.013 387.912 420.706 395.549 443.14C397.187 444.385 398.974 445.923 400.675 447.695C402.346 449.436 403.954 451.424 405.254 453.603C403.768 442.443 402.827 431.284 402.299 420.481C400.96 414.653 398.371 408.542 395.044 402.481C394.612 401.695 394.168 400.91 393.714 400.128C390.901 396.119 385.835 393.205 380.173 391.179C375.038 389.342 369.57 388.291 365.239 387.796C341.619 404.562 318.617 390.364 304.829 381.5C337.643 366.238 358.203 377.363 365.382 385.799C369.857 386.305 375.514 387.388 380.847 389.296C383.946 390.405 386.991 391.813 389.638 393.584C381.403 381.163 371.158 369.864 363.96 362.885C347.806 357.823 313.909 346.169 324.329 303C326.662 308.167 333.629 319.6 342.829 324C353.567 329.136 364.742 349.096 364.546 360.673C373.052 368.799 386.331 383.467 395.397 399.045C395.948 399.837 396.425 400.674 396.818 401.556C398.832 405.229 400.595 408.946 401.984 412.634C401.185 387.272 402.56 364.448 404.292 349.04C400.631 343.404 395.823 330.932 399.829 316C405.329 295.5 411.329 286.5 419.329 281C416.329 291.5 416.829 303.5 417.329 314.5C417.375 315.509 417.437 316.555 417.502 317.632C418.126 328.058 418.918 341.276 406.205 349.925Z" fill="url(#paint9_linear_19_211)"/>
</g>
<path fill-rule="evenodd" clip-rule="evenodd" d="M14.8572 279.623L14.857 279.623C12.5566 276.469 10.2345 273.285 8.32874 270.5C1.82874 261 2.32878 248.5 7.32878 242.5C12.3288 236.5 22.3288 238.5 25.8288 243.5C29.3288 248.5 32.8287 258.5 29.3287 272.5C28.4475 276.025 27.6194 279.151 26.9004 281.865C25.8644 285.775 25.0547 288.831 24.6383 290.997C28.72 303.91 33.0925 315.453 37.7863 325.976C36.217 314.362 36.8639 297.469 41.8288 289C50.3288 274.5 64.1599 281.198 61.3288 295C59.0562 306.079 52.5872 315.221 47.4238 322.518C44.5786 326.539 42.1298 330 40.998 332.916C49.4105 350.441 58.8145 365.119 69.3699 378.784C69.9368 379.518 70.5088 380.246 71.0858 380.968C67.7417 370.936 62.4218 350.976 63.8287 335.5C65.8287 313.5 88.3287 313.5 85.3287 338C83.7552 350.85 79.981 359.711 76.8917 366.964C74.4318 372.74 72.4062 377.496 72.2718 382.434C84.5383 397.421 99.1083 409.851 117.122 422.223C107.989 409.061 99.0117 386.292 105.329 369C109.303 358.12 129.101 352.122 134.829 376.5C139.081 394.595 133.29 416.99 128.439 429.714C135.635 434.321 143.335 438.989 151.596 443.845C162.442 450.22 172.65 456.98 182.249 464.036C173.281 450.423 163.631 429.775 159.829 408C154.329 376.5 186.782 374.24 192.329 405C197.421 433.241 196.941 455.91 191.985 471.454C207.928 484.042 222.063 497.427 234.534 511.143C226.433 494.92 219.621 473.443 219.178 451.5C218.431 414.533 265.456 415.634 266.437 451.753C267.359 485.668 261.246 512.193 250.158 529.547C264.214 547.29 275.672 565.236 284.836 582.415C279.541 559.366 277.412 526.705 284.681 495.912C295.207 451.317 345.089 466.967 335.073 510.615C325.576 552.003 310.727 582.16 293.352 599.531C303.956 622.48 310.346 643.329 313.329 659.5L306.829 656.5C304.101 641.713 298.57 623.188 289.505 602.822C274.398 610.982 246.011 618.495 218.783 614.22C186.791 609.197 194.876 567.558 226.172 572.242C251.955 576.1 272.01 583.898 285.512 594.213C276.191 574.906 263.751 554.246 247.613 533.738C235.021 544.189 209.186 556.297 182.619 556.099C152.025 555.87 153.26 513.519 183.155 513.516C207.663 513.512 227.473 518.204 241.612 526.328C227.282 509.131 210.288 492.17 190.283 476.343C180.677 484.627 152.35 506.802 126.07 497.924C113.615 493.716 102.724 474.48 128.758 466.238C146.355 460.667 170.413 466.726 184.892 472.162C173.846 463.763 161.921 455.714 149.062 448.155C139.975 442.813 131.536 437.562 123.676 432.293C113.826 438.942 86.5189 455.521 63.8653 447.295C52.9776 443.342 44.9248 427.065 69.2914 421.289C84.2605 417.741 103.158 422.318 115.943 426.969C97.1412 413.662 81.8527 400.015 68.9734 384.314C59.5479 387.454 35.7981 393.965 20.3286 383.5C12.726 378.357 9.82864 364.5 29.8286 365C41.8613 365.301 55.2137 372.219 64.1437 378.183C54.6016 365.606 46.7071 352.613 39.6641 337.493C21.596 337.346 9.6222 334.72 2.8287 325.5C-4.1713 316 2.82872 308.5 12.8287 312C19.7454 314.421 30.2058 323.161 36.7205 330.936C31.4725 318.808 26.6622 305.277 21.9265 289.563C20.0161 286.697 17.4504 283.179 14.8572 279.623L14.8572 279.623Z" fill="url(#paint10_linear_19_211)"/>
</g>
<defs>
<linearGradient id="paint0_linear_19_211" x1="220.329" y1="480" x2="278.329" y2="794.5" gradientUnits="userSpaceOnUse">
<stop stop-color="#4F7302"/>
<stop offset="0.516854" stop-color="#7EA629"/>
<stop offset="0.9375" stop-color="#B0D959"/>
</linearGradient>
<linearGradient id="paint1_linear_19_211" x1="834.829" y1="597" x2="756.458" y2="322.676" gradientUnits="userSpaceOnUse">
<stop stop-color="#4F7302"/>
<stop offset="0.516854" stop-color="#7EA629"/>
<stop offset="0.9375" stop-color="#B0D959"/>
</linearGradient>
<linearGradient id="paint2_linear_19_211" x1="637.329" y1="455" x2="511.915" y2="461.612" gradientUnits="userSpaceOnUse">
<stop stop-color="#4F7302"/>
<stop offset="0.516854" stop-color="#7EA629"/>
<stop offset="0.9375" stop-color="#B0D959"/>
</linearGradient>
<linearGradient id="paint3_linear_19_211" x1="680.829" y1="372.5" x2="778.655" y2="276.638" gradientUnits="userSpaceOnUse">
<stop stop-color="#4F7302"/>
<stop offset="0.516854" stop-color="#7EA629"/>
<stop offset="0.9375" stop-color="#B0D959"/>
</linearGradient>
<linearGradient id="paint4_linear_19_211" x1="309.963" y1="-1.87388e-05" x2="307.792" y2="184.97" gradientUnits="userSpaceOnUse">
<stop stop-color="#4F7302"/>
<stop offset="0.516854" stop-color="#7EA629"/>
<stop offset="0.9375" stop-color="#B0D959"/>
</linearGradient>
<linearGradient id="paint5_linear_19_211" x1="95.3289" y1="-120" x2="172.753" y2="224.378" gradientUnits="userSpaceOnUse">
<stop stop-color="#4F7302"/>
<stop offset="0.516854" stop-color="#7EA629"/>
<stop offset="0.9375" stop-color="#B0D959"/>
</linearGradient>
<linearGradient id="paint6_linear_19_211" x1="520.329" y1="597" x2="303.054" y2="479.232" gradientUnits="userSpaceOnUse">
<stop stop-color="#4F7302"/>
<stop offset="0.516854" stop-color="#7EA629"/>
<stop offset="0.9375" stop-color="#B0D959"/>
</linearGradient>
<linearGradient id="paint7_linear_19_211" x1="888.329" y1="741" x2="651.861" y2="683.248" gradientUnits="userSpaceOnUse">
<stop stop-color="#4F7302"/>
<stop offset="0.516854" stop-color="#7EA629"/>
<stop offset="0.9375" stop-color="#B0D959"/>
</linearGradient>
<linearGradient id="paint8_linear_19_211" x1="393.329" y1="132.5" x2="399.329" y2="292.5" gradientUnits="userSpaceOnUse">
<stop stop-color="#4F7302"/>
<stop offset="0.516854" stop-color="#7EA629"/>
<stop offset="0.9375" stop-color="#B0D959"/>
</linearGradient>
<linearGradient id="paint9_linear_19_211" x1="476.829" y1="597" x2="344.435" y2="334.098" gradientUnits="userSpaceOnUse">
<stop stop-color="#4F7302"/>
<stop offset="0.516854" stop-color="#7EA629"/>
<stop offset="0.9375" stop-color="#B0D959"/>
</linearGradient>
<linearGradient id="paint10_linear_19_211" x1="205.329" y1="776.862" x2="-10.1299" y2="396.64" gradientUnits="userSpaceOnUse">
<stop stop-color="#4F7302"/>
<stop offset="0.516854" stop-color="#7EA629"/>
<stop offset="0.9375" stop-color="#B0D959"/>
</linearGradient>
<clipPath id="clip0_19_211">
<rect width="970.829" height="930" fill="white" transform="translate(0 -229)"/>
</clipPath>
</defs>
</svg>
