<svg width="60" height="101" viewBox="0 0 60 101" fill="none" xmlns="http://www.w3.org/2000/svg">
<g clip-path="url(#clip0_51_12)">
<path d="M55.2576 47.1941C53.2689 45.1941 49.7887 46.6941 48.7944 47.1941L23.9361 58.1941L25.9247 96.1941C26.9748 98.3062 30.3992 99.6941 32.8851 99.6941C35.8681 99.6941 36.8499 98.5008 37.3596 96.1941C40.3426 82.6941 46.8057 67.6941 55.7547 53.6941C57.6934 50.6612 57.2462 49.1941 55.2576 47.1941Z" fill="url(#paint0_linear_51_12)"/>
<path d="M55.7547 48.1941C55.7547 46.1941 52.4403 45.6941 50.7831 45.6941L23.9361 58.1941L25.9247 96.1941C28.0791 100.527 34.3766 100.194 35.3709 95.6941C38.3539 82.1941 43.8227 68.1941 52.7717 54.1941C54.7104 51.1612 55.7547 50.1941 55.7547 48.1941Z" fill="#312C30"/>
<path d="M36.3652 76.1941C35.5697 75.7941 32.7193 75.0274 31.3935 74.6941C30.5649 82.0274 29.1066 96.6941 29.902 96.6941C30.8964 96.6941 34.3765 96.1941 34.8737 92.1941C35.3709 88.1941 36.8624 85.1941 37.8567 81.1941C38.8511 77.1941 37.3596 76.6941 36.3652 76.1941Z" fill="#C4C4C4"/>
<path d="M13.4955 67.1941L13.9927 90.1941C13.9927 94.6941 15.9814 95.6941 16.9757 96.1941C17.97 96.6941 26.4219 100.194 28.4105 100.194C30.3992 100.194 33.3822 100.194 33.3822 97.1941V72.1941C33.3822 71.1941 33.3822 70.6941 34.8737 70.1941L34.8737 70.1941C36.3652 69.6941 37.8567 69.1941 43.3256 67.1941C46.3086 66.1032 45.8114 63.1941 45.8114 62.1941C45.8114 60.1941 44.736 60.1941 43.8227 60.1941H27.4162C22.776 61.5274 19.4615 62.6941 16.9757 63.6941C13.9305 64.9191 13.4955 65.1941 13.4955 67.1941Z" fill="url(#paint1_linear_51_12)"/>
<path d="M13.4955 67.1941L13.9927 90.1941C13.9927 94.6941 15.9814 95.6941 16.9757 96.1941C17.97 96.6941 26.4219 100.194 28.4105 100.194C30.3992 100.194 30.8964 98.1941 30.8964 96.1941V72.1941C30.8964 69.1941 32.3879 68.6941 33.8794 68.1941C35.3709 67.6941 37.8567 66.6941 43.3256 64.6941C45.0217 64.0738 45.8114 63.1941 45.8114 62.1941C45.8114 60.1941 44.736 60.1941 43.8227 60.1941H27.4162C22.776 61.5274 19.4615 62.6941 16.9757 63.6941C13.9305 64.9191 13.4955 65.1941 13.4955 67.1941Z" fill="url(#paint2_linear_51_12)"/>
<path d="M54.6923 34.1941C55.7231 52.6941 44.986 68.1941 30.4697 68.1941C15.9533 68.1941 3.15473 52.1941 2.12398 34.1941C1.09323 16.1941 12.8611 0.194092 27.3774 0.194092C41.8938 0.194092 53.6616 15.6941 54.6923 34.1941Z" fill="url(#paint3_linear_51_12)"/>
<path d="M52.7717 34.1941C53.7661 52.6941 43.4083 68.1941 29.4049 68.1941C15.4014 68.1941 3.05504 52.1941 2.06071 34.1941C1.06638 16.1941 12.4184 0.194092 26.4219 0.194092C40.4253 0.194092 51.7774 15.6941 52.7717 34.1941Z" fill="url(#paint4_radial_51_12)"/>
</g>
<defs>
<linearGradient id="paint0_linear_51_12" x1="47.3029" y1="41.1941" x2="26.4226" y2="102.139" gradientUnits="userSpaceOnUse">
<stop stop-color="#312C30"/>
<stop offset="0.481324" stop-color="#646464"/>
<stop offset="0.713836" stop-color="#3F3B3F"/>
<stop offset="1" stop-color="#312C30"/>
</linearGradient>
<linearGradient id="paint1_linear_51_12" x1="24.4332" y1="84.1941" x2="51.2867" y2="87.6439" gradientUnits="userSpaceOnUse">
<stop stop-color="#565656"/>
<stop offset="1" stop-color="#312C30"/>
</linearGradient>
<linearGradient id="paint2_linear_51_12" x1="28.9077" y1="64.1941" x2="20.8668" y2="98.674" gradientUnits="userSpaceOnUse">
<stop stop-color="#312C30"/>
<stop offset="0.186765" stop-color="#646464"/>
<stop offset="0.713836" stop-color="#3F3B3F"/>
<stop offset="1" stop-color="#312C30"/>
</linearGradient>
<linearGradient id="paint3_linear_51_12" x1="27.1947" y1="6.99409" x2="13.0083" y2="65.3489" gradientUnits="userSpaceOnUse">
<stop stop-color="#312C30"/>
<stop offset="0.186765" stop-color="#646464"/>
<stop offset="0.713836" stop-color="#3F3B3F"/>
<stop offset="1" stop-color="#312C30"/>
</linearGradient>
<radialGradient id="paint4_radial_51_12" cx="0" cy="0" r="1" gradientUnits="userSpaceOnUse" gradientTransform="translate(22.4445 34.1941) rotate(81.8104) scale(38.3915 26.3911)">
<stop stop-color="#CACACA"/>
<stop offset="0.718692" stop-color="#F0F0F0"/>
<stop offset="1" stop-color="#C4C4C4"/>
</radialGradient>
<clipPath id="clip0_51_12">
<rect width="60" height="100" fill="white" transform="translate(0 0.194092)"/>
</clipPath>
</defs>
</svg>
