<svg width="558" height="199" viewBox="0 0 558 199" fill="none" xmlns="http://www.w3.org/2000/svg">
<path d="M158.018 198.999C148.2 199.053 128.199 197.698 108.269 185.061C102.988 181.685 76.421 164.844 71.2409 135.334C69.6923 126.569 70.4666 119.267 71.1789 113.181C72.5804 100.444 75.7396 94.7759 84.0945 71.6395C90.7304 53.2495 94.0986 43.8571 96.1041 33.9614C98.3811 22.7901 99.3915 11.3977 99.1162 0C110.885 7.24885 121.441 16.3027 130.398 26.83C138.722 36.625 157.964 59.2969 159.892 92.5614C162.215 133.058 137.243 161.568 131.529 167.778C118.716 153.023 110.195 135.037 106.893 115.776C103.591 96.516 105.633 76.7186 112.798 58.5381C108.106 65.2436 91.675 90.432 96.1118 123.673C100.58 157.186 124.498 185.905 158.018 198.999Z" fill="#7EA629"/>
<path d="M60.9658 119.531C59.7667 106.393 62.8467 93.2204 69.7465 81.9766C47.6701 72.8811 23.8489 68.8029 0.00407576 70.0367C-0.181759 92.848 6.02823 109.441 10.2482 118.47C14.2747 127.073 18.8818 136.914 29.3041 145.354C44.651 157.759 62.2434 158.734 69.2741 158.734C65.2794 146.832 59.9327 135.426 53.3388 124.742C45.437 111.936 35.8126 100.277 24.7356 90.0914C32.0742 94.2924 39.0332 99.1243 45.5337 104.532C51.0394 109.146 56.1974 114.159 60.9658 119.531Z" fill="#4F7302"/>
<path d="M227.08 55.6C231.544 55.6 235.408 56.344 238.672 57.832C241.984 59.32 244.528 61.432 246.304 64.168C248.08 66.904 248.968 70.144 248.968 73.888C248.968 77.584 248.08 80.824 246.304 83.608C244.528 86.344 241.984 88.456 238.672 89.944C235.408 91.384 231.544 92.104 227.08 92.104H216.928V106H205.264V55.6H227.08ZM226.432 82.6C229.936 82.6 232.6 81.856 234.424 80.368C236.248 78.832 237.16 76.672 237.16 73.888C237.16 71.056 236.248 68.896 234.424 67.408C232.6 65.872 229.936 65.104 226.432 65.104H216.928V82.6H226.432ZM281.414 106.864C276.182 106.864 271.454 105.736 267.23 103.48C263.054 101.224 259.766 98.128 257.366 94.192C255.014 90.208 253.838 85.744 253.838 80.8C253.838 75.856 255.014 71.416 257.366 67.48C259.766 63.496 263.054 60.376 267.23 58.12C271.454 55.864 276.182 54.736 281.414 54.736C286.646 54.736 291.35 55.864 295.526 58.12C299.702 60.376 302.99 63.496 305.39 67.48C307.79 71.416 308.99 75.856 308.99 80.8C308.99 85.744 307.79 90.208 305.39 94.192C302.99 98.128 299.702 101.224 295.526 103.48C291.35 105.736 286.646 106.864 281.414 106.864ZM281.414 96.928C284.39 96.928 287.078 96.256 289.478 94.912C291.878 93.52 293.75 91.6 295.094 89.152C296.486 86.704 297.182 83.92 297.182 80.8C297.182 77.68 296.486 74.896 295.094 72.448C293.75 70 291.878 68.104 289.478 66.76C287.078 65.368 284.39 64.672 281.414 64.672C278.438 64.672 275.75 65.368 273.35 66.76C270.95 68.104 269.054 70 267.662 72.448C266.318 74.896 265.646 77.68 265.646 80.8C265.646 83.92 266.318 86.704 267.662 89.152C269.054 91.6 270.95 93.52 273.35 94.912C275.75 96.256 278.438 96.928 281.414 96.928ZM341.807 106.864C336.671 106.864 332.015 105.76 327.839 103.552C323.711 101.296 320.447 98.2 318.047 94.264C315.695 90.28 314.519 85.792 314.519 80.8C314.519 75.808 315.695 71.344 318.047 67.408C320.447 63.424 323.711 60.328 327.839 58.12C332.015 55.864 336.695 54.736 341.879 54.736C346.247 54.736 350.183 55.504 353.687 57.04C357.239 58.576 360.215 60.784 362.615 63.664L355.127 70.576C351.719 66.64 347.495 64.672 342.455 64.672C339.335 64.672 336.551 65.368 334.103 66.76C331.655 68.104 329.735 70 328.343 72.448C326.999 74.896 326.327 77.68 326.327 80.8C326.327 83.92 326.999 86.704 328.343 89.152C329.735 91.6 331.655 93.52 334.103 94.912C336.551 96.256 339.335 96.928 342.455 96.928C347.495 96.928 351.719 94.936 355.127 90.952L362.615 97.864C360.215 100.792 357.239 103.024 353.687 104.56C350.135 106.096 346.175 106.864 341.807 106.864ZM408.245 65.104H392.117V106H380.597V65.104H364.541V55.6H408.245V65.104ZM438.914 106.864C433.682 106.864 428.954 105.736 424.73 103.48C420.554 101.224 417.266 98.128 414.866 94.192C412.514 90.208 411.338 85.744 411.338 80.8C411.338 75.856 412.514 71.416 414.866 67.48C417.266 63.496 420.554 60.376 424.73 58.12C428.954 55.864 433.682 54.736 438.914 54.736C444.146 54.736 448.85 55.864 453.026 58.12C457.202 60.376 460.49 63.496 462.89 67.48C465.29 71.416 466.49 75.856 466.49 80.8C466.49 85.744 465.29 90.208 462.89 94.192C460.49 98.128 457.202 101.224 453.026 103.48C448.85 105.736 444.146 106.864 438.914 106.864ZM438.914 96.928C441.89 96.928 444.578 96.256 446.978 94.912C449.378 93.52 451.25 91.6 452.594 89.152C453.986 86.704 454.682 83.92 454.682 80.8C454.682 77.68 453.986 74.896 452.594 72.448C451.25 70 449.378 68.104 446.978 66.76C444.578 65.368 441.89 64.672 438.914 64.672C435.938 64.672 433.25 65.368 430.85 66.76C428.45 68.104 426.554 70 425.162 72.448C423.818 74.896 423.146 77.68 423.146 80.8C423.146 83.92 423.818 86.704 425.162 89.152C426.554 91.6 428.45 93.52 430.85 94.912C433.25 96.256 435.938 96.928 438.914 96.928ZM494.987 85.696H486.923V106H475.331V55.6H486.923V75.976H495.275L508.523 55.6H520.835L504.347 79.936L521.339 106H508.091L494.987 85.696ZM257.248 164.496V184.44H246.448V174H210.88V184.44H200.08L200.152 164.496H202.168C205.192 164.4 207.328 162.192 208.576 157.872C209.824 153.552 210.592 147.384 210.88 139.368L211.456 123.6H250.192V164.496H257.248ZM221.176 140.448C220.936 146.448 220.432 151.488 219.664 155.568C218.896 159.6 217.72 162.576 216.136 164.496H238.672V133.104H221.392L221.176 140.448ZM289.148 174.864C283.916 174.864 279.188 173.736 274.964 171.48C270.788 169.224 267.5 166.128 265.1 162.192C262.748 158.208 261.572 153.744 261.572 148.8C261.572 143.856 262.748 139.416 265.1 135.48C267.5 131.496 270.788 128.376 274.964 126.12C279.188 123.864 283.916 122.736 289.148 122.736C294.38 122.736 299.084 123.864 303.26 126.12C307.436 128.376 310.724 131.496 313.124 135.48C315.524 139.416 316.724 143.856 316.724 148.8C316.724 153.744 315.524 158.208 313.124 162.192C310.724 166.128 307.436 169.224 303.26 171.48C299.084 173.736 294.38 174.864 289.148 174.864ZM289.148 164.928C292.124 164.928 294.812 164.256 297.212 162.912C299.612 161.52 301.484 159.6 302.828 157.152C304.22 154.704 304.916 151.92 304.916 148.8C304.916 145.68 304.22 142.896 302.828 140.448C301.484 138 299.612 136.104 297.212 134.76C294.812 133.368 292.124 132.672 289.148 132.672C286.172 132.672 283.484 133.368 281.084 134.76C278.684 136.104 276.788 138 275.396 140.448C274.052 142.896 273.38 145.68 273.38 148.8C273.38 151.92 274.052 154.704 275.396 157.152C276.788 159.6 278.684 161.52 281.084 162.912C283.484 164.256 286.172 164.928 289.148 164.928ZM325.709 123.6H366.389V132.888H337.301V143.256H351.269C357.365 143.256 361.997 144.528 365.165 147.072C368.381 149.616 369.989 153.288 369.989 158.088C369.989 163.128 368.213 167.04 364.661 169.824C361.109 172.608 356.093 174 349.613 174H325.709V123.6ZM348.965 165.36C351.941 165.36 354.221 164.784 355.805 163.632C357.389 162.432 358.181 160.704 358.181 158.448C358.181 154.032 355.109 151.824 348.965 151.824H337.301V165.36H348.965ZM400.682 123.6C405.146 123.6 409.01 124.344 412.274 125.832C415.586 127.32 418.13 129.432 419.906 132.168C421.682 134.904 422.57 138.144 422.57 141.888C422.57 145.584 421.682 148.824 419.906 151.608C418.13 154.344 415.586 156.456 412.274 157.944C409.01 159.384 405.146 160.104 400.682 160.104H390.53V174H378.866V123.6H400.682ZM400.034 150.6C403.538 150.6 406.202 149.856 408.026 148.368C409.85 146.832 410.762 144.672 410.762 141.888C410.762 139.056 409.85 136.896 408.026 135.408C406.202 133.872 403.538 133.104 400.034 133.104H390.53V150.6H400.034ZM461.861 163.2H438.461L433.997 174H422.045L444.509 123.6H456.029L478.565 174H466.325L461.861 163.2ZM458.189 154.344L450.197 135.048L442.205 154.344H458.189Z" fill="black"/>
</svg>
