<svg width="161" height="199" viewBox="0 0 161 199" fill="none" xmlns="http://www.w3.org/2000/svg">
<path d="M158.018 198.999C148.2 199.053 128.199 197.698 108.269 185.061C102.988 181.685 76.421 164.844 71.2409 135.334C69.6923 126.569 70.4666 119.267 71.1789 113.181C72.5804 100.444 75.7396 94.7759 84.0945 71.6395C90.7304 53.2495 94.0986 43.8571 96.1041 33.9614C98.3811 22.7901 99.3915 11.3977 99.1162 0C110.885 7.24885 121.441 16.3027 130.398 26.83C138.722 36.625 157.964 59.2969 159.892 92.5614C162.215 133.058 137.243 161.568 131.529 167.778C118.716 153.023 110.195 135.037 106.893 115.776C103.591 96.516 105.633 76.7186 112.798 58.5381C108.106 65.2436 91.675 90.432 96.1118 123.673C100.58 157.186 124.498 185.905 158.018 198.999Z" fill="#7EA629"/>
<path d="M60.9658 119.531C59.7667 106.393 62.8467 93.2204 69.7465 81.9766C47.6701 72.8811 23.8489 68.8029 0.00407576 70.0367C-0.181759 92.848 6.02823 109.441 10.2482 118.47C14.2747 127.073 18.8818 136.914 29.3041 145.354C44.651 157.759 62.2434 158.734 69.2741 158.734C65.2794 146.832 59.9327 135.426 53.3388 124.742C45.437 111.936 35.8126 100.277 24.7356 90.0914C32.0742 94.2924 39.0332 99.1243 45.5337 104.532C51.0394 109.146 56.1974 114.159 60.9658 119.531V119.531Z" fill="#4F7302"/>
</svg>
