<svg width="60" height="101" viewBox="0 0 60 101" fill="none" xmlns="http://www.w3.org/2000/svg">
<path d="M9.69839e-07 16.5804C-3.52097e-05 13.3544 1.01692 2.50238 28.4746 0.435323C53.3218 -1.43522 60 8.18662 60 8.18662V87.2516C60 87.2516 58.4746 80.5337 41.6949 78.4666C24.9152 76.3996 0 77.9501 0 77.9501C0 77.9501 0.000269753 40.5468 9.69839e-07 16.5804Z" fill="url(#paint0_linear_29_25)"/>
<path d="M10.1694 20.0724C10.1694 20.0724 13.7288 25.24 19.8305 27.3071C24.2283 28.7969 31.5254 29.3742 31.5254 29.3742V35.5753H10.1694V20.0724Z" fill="#663A1F"/>
<path d="M28.9831 30.4077C5.59322 30.4077 0.000158073 22.6563 0.000158073 16.4551V84.7196C-0.000152276 85.0768 -0.000679873 85.7475 0.10217 86.6274C1.02108 89.7434 6.68112 99.1855 28.9831 100.171C48.7695 100.687 52.7972 92.4562 52.881 90.3663C52.8764 83.3441 52.8246 75.3107 52.7718 67.1254C52.6578 49.4319 52.5392 31.0277 52.8815 20.5892C52.8151 22.6563 49.3221 30.4077 28.9831 30.4077Z" fill="url(#paint1_linear_29_25)"/>
<path d="M52.881 90.3677C52.8609 90.9827 52.8424 91.6254 52.8253 92.2939C52.8669 91.9537 52.8814 91.6477 52.8814 91.3859C52.8814 91.049 52.8813 90.7096 52.881 90.3677Z" fill="url(#paint2_linear_29_25)"/>
<path fill-rule="evenodd" clip-rule="evenodd" d="M31.5254 30.4076C43.3199 30.4076 52.8813 25.7804 52.8813 20.0724C52.8813 14.3643 43.3199 9.73706 31.5254 9.73706C19.7308 9.73706 10.1694 14.3643 10.1694 20.0724C10.1694 25.7804 19.7308 30.4076 31.5254 30.4076ZM31.5254 28.3406C41.635 28.3406 49.8305 24.6388 49.8305 20.0724C49.8305 15.506 41.635 11.8041 31.5254 11.8041C21.4157 11.8041 13.2203 15.506 13.2203 20.0724C13.2203 24.6388 21.4157 28.3406 31.5254 28.3406Z" fill="url(#paint3_linear_29_25)"/>
<defs>
<linearGradient id="paint0_linear_29_25" x1="-2.03393" y1="36.6088" x2="64.5763" y2="36.6088" gradientUnits="userSpaceOnUse">
<stop stop-color="#AC815D"/>
<stop offset="0.418521" stop-color="#664226"/>
<stop offset="1" stop-color="#814F2D"/>
</linearGradient>
<linearGradient id="paint1_linear_29_25" x1="-2.03536e-06" y1="59.3465" x2="55.9335" y2="60.8475" gradientUnits="userSpaceOnUse">
<stop stop-color="#C49E73"/>
<stop offset="0.384293" stop-color="#A47A52"/>
<stop offset="0.765999" stop-color="#855A3A"/>
<stop offset="1" stop-color="#B79768"/>
</linearGradient>
<linearGradient id="paint2_linear_29_25" x1="-2.03536e-06" y1="59.3465" x2="55.9335" y2="60.8475" gradientUnits="userSpaceOnUse">
<stop stop-color="#C49E73"/>
<stop offset="0.384293" stop-color="#A47A52"/>
<stop offset="0.765999" stop-color="#855A3A"/>
<stop offset="1" stop-color="#B79768"/>
</linearGradient>
<linearGradient id="paint3_linear_29_25" x1="5.59316" y1="25.24" x2="45.2325" y2="39.0692" gradientUnits="userSpaceOnUse">
<stop stop-color="#C49E73"/>
<stop offset="0.384293" stop-color="#A47A52"/>
<stop offset="0.765999" stop-color="#855A3A"/>
<stop offset="1" stop-color="#B79768"/>
</linearGradient>
</defs>
</svg>
