<svg width="60" height="100" viewBox="0 0 60 100" fill="none" xmlns="http://www.w3.org/2000/svg">
<g filter="url(#filter0_i_71_12)">
<path d="M40.9235 28.2295C44.8734 24.8852 44.9499 26.4145 44.9499 28.2294C46.2487 23.8959 44.5089 26.393 40.9235 21.8587C37.8014 17.9103 31.5286 19.266 28.6279 22.2291C24.9685 25.9673 23.7356 30.7851 23.0862 34.6742C22.8889 35.8556 23.3892 36.489 23.7356 37.341C24.6015 26.859 29.7103 28.3404 31.0091 28.9331C32.3079 29.5258 36.724 31.7851 40.9235 28.2295Z" fill="url(#paint0_radial_71_12)"/>
</g>
<path d="M36.8063 25.3601C45.0528 24.2271 45.0152 25.4869 45.1047 26.673C45.6029 25.2522 44.4284 23.6127 32.9703 25.3601C28.6859 26.1169 25.5782 26.9879 24.9022 31.5611C25.9537 28.8624 27.1732 28.0451 29.9812 28.0451C31.4259 28.0451 29.9812 26.2977 36.8063 25.3601Z" fill="#4A7C3B"/>
<path d="M33.3322 20.7623C28.3397 22.812 28.6415 27.2161 28.6415 27.2161C28.6415 27.2161 28.1491 27.4493 27.7215 27.4385C27.3893 23.9178 30.24 21.6689 33.3322 20.7623Z" fill="#4A7C3B"/>
<path d="M38.6783 22.6357C34.6542 22.6906 33.2874 25.6661 33.2874 25.6661C33.2874 25.6661 32.8794 25.692 32.601 25.5741C33.6337 23.1718 36.3149 22.4309 38.6783 22.6357Z" fill="#4A7C3B"/>
<path d="M40.3085 26.1979C36.6612 27.6533 33.9115 25.4882 33.9115 25.4882C33.9115 25.4882 33.5314 25.6176 33.3412 25.8277C35.4975 27.6021 38.2875 27.2658 40.3085 26.1979Z" fill="#4A7C3B"/>
<g filter="url(#filter1_i_71_12)">
<path d="M17.2617 12.49C19.516 8.71334 16.8805 0.910058 15.3343 0C20.8719 1.89528 23.2295 7.20974 22.2672 13.289C20.8586 22.1883 13.0804 19.4953 17.2617 12.49Z" fill="url(#paint1_radial_71_12)"/>
</g>
<g filter="url(#filter2_i_71_12)">
<path d="M20.7612 14.39C23.9242 3.73881 16.8805 0.910058 15.3343 0C20.8719 1.89528 23.2295 7.20974 22.2672 13.289C20.8586 22.1883 18.4973 22.0135 20.7612 14.39Z" fill="#4A7C3B"/>
</g>
<path d="M18.8187 9.20807C20.9178 9.78379 21.5264 12.0905 21.5241 12.6255C21.5241 12.6255 21.5677 12.8712 22.3442 12.5689C21.8115 10.8034 20.4833 9.45337 18.8187 9.20807Z" fill="#4A7C3B"/>
<g filter="url(#filter3_i_71_12)">
<path d="M31.864 83.2453C31.3893 85.6824 32.4575 86.9686 33.051 87.3071C29.664 85.7839 32.6313 82.5196 28.8967 78.9655C27.2134 77.3636 27.1163 74.4927 27.6585 72.1478C28.1334 70.0942 25.9293 66.9983 25.3359 64.4597C23.6215 66.4905 23.7547 68.5214 22.8061 70.5523C24.34 72.5832 26.9609 77.5514 25.9293 80.199C25.3359 81.7221 25.0771 82.9329 25.9293 84.2607C26.7373 85.5194 28.8967 90.3533 26.5228 92.8919C27.6909 89.3014 26.477 87.2086 24.6966 84.6701C24.1489 83.8892 23.6397 82.5394 24.3871 80.3752C25.2279 77.9406 23.5555 75.1218 21.775 72.5832C19.9889 74.8418 18.2142 76.1372 18.8077 81.7221C19.4012 87.307 22.6623 88.3187 19.7589 91.8765C17.5836 94.5421 15.879 96.454 17.0273 100C15.8403 98.9845 14.6534 95.9382 18.2142 91.8765C21.775 87.8147 17.6207 88.3224 17.0273 81.2144C16.4338 74.1063 20.5881 72.5832 21.1816 70.0446C21.775 67.506 22.3685 65.4751 24.1489 62.9365C25.9293 60.3979 24.7424 55.3207 23.5555 54.813C21.775 57.3516 21.5547 59.7908 21.1816 61.9211C20.8134 64.0231 19.4012 65.4751 18.2142 68.5214C17.6207 66.4905 18.3099 65.1479 18.9034 63.6248C16.5295 65.1479 15.6405 66.5563 14.3324 68.5214C15.5193 70.6546 15.8403 74.1063 14.6534 75.1218C15.2469 73.5986 14.3324 71.289 13.4664 70.5523C12.873 71.5677 11.4239 74.7666 11.847 79.5934C12.4357 86.3078 10.4991 88.8302 6.93826 90.861C3.37744 92.8919 3.97091 95.9382 3.37744 98.4768C2.78397 96.9537 2.1905 92.8919 6.34479 89.8456C10.4991 86.7993 10.4991 84.2607 9.90562 77.6604C9.31215 71.06 14.6534 64.9674 17.0273 62.9365C19.4012 60.9056 19.4012 58.367 19.9946 55.3207C20.5881 52.2744 21.775 49.7358 22.3685 44.1509C22.962 38.566 20.7473 34.6891 20.1539 31.6428C19.0101 25.7718 19.0129 20.7282 21.775 15.7187C24.7386 10.344 31.2706 7.59517 41.9531 7.08745C52.6355 6.57973 51.4486 13.1801 56.1964 15.2109C60.9441 17.2418 60.3507 20.2881 59.1637 22.319C59.1637 21.3036 59.1637 19.2727 53.8225 18.765C48.4812 18.2572 46.3474 17.3401 43.14 15.7187C40.5109 14.3897 26.5152 5.95495 22.9544 19.6634C20.4846 29.1717 24.7424 35.5197 24.7424 42.1201C24.7424 48.7204 25.3359 52.2745 26.5228 53.7976C27.7098 55.3208 28.3032 55.8285 28.3032 57.3517C28.3032 58.8748 28.8967 59.3825 30.6771 61.9211C28.778 61.5149 27.1163 58.0286 26.5228 56.3362C27.1163 58.3671 27.1163 59.3825 27.1163 60.9056V60.9057C26.5228 66.9983 30.0836 68.5215 28.8967 73.5987C27.7098 78.6758 32.4575 80.199 31.864 83.2453Z" fill="url(#paint2_linear_71_12)"/>
</g>
<path d="M43.3509 13.8836C32.6392 7.60664 26.1524 10.7494 23.2186 14.6148C29.3041 9.00989 36.4877 10.4924 43.3509 14.6148C46.2651 16.3653 48.1121 16.2288 52.077 16.2288C57.4183 16.2288 58.4107 18.5883 59.0042 19.6037C59.0042 17.7439 57.6588 15.2924 52.077 15.359C50.0398 15.3834 46.3194 15.6231 43.3509 13.8836Z" fill="#4A7C3B"/>
<path d="M40.9168 8.66118C36.8948 7.77818 34.8699 10.8386 34.8699 10.8386C34.8699 10.8386 34.0937 10.8386 33.8575 10.6365C35.7136 8.09577 38.6365 7.86796 40.9168 8.66118Z" fill="#4A7C3B"/>
<path d="M49.703 10.4977C44.328 9.35756 41.2821 12.9173 41.2821 12.9173C41.2821 12.9173 40.7288 12.8288 40.4072 12.5875C42.7721 9.69224 46.6441 9.51171 49.703 10.4977Z" fill="#4A7C3B"/>
<path d="M53.4248 13.5269C49.8087 12.729 47.6489 15.6016 47.6489 15.6016C47.6489 15.6016 47.2759 15.5422 47.0641 15.3576C48.7444 13.0235 51.3757 12.8063 53.4248 13.5269Z" fill="#4A7C3B"/>
<g filter="url(#filter4_i_71_12)">
<path d="M7.71512 13.8598C2.96736 15.0783 0.593471 12.3366 0 10.8135C0.593471 15.8907 3.56083 18.937 10.089 21.4756C14.8368 23.3218 21.9584 22.9987 26.1127 21.4756C27.6735 20.9033 28.4866 19.4447 28.4866 18.4293C28.4866 17.2358 27.7252 16.3505 26.1127 15.8907C24.3323 15.3829 22.5519 15.3829 21.365 15.3829C17.8041 10.8135 13.6498 12.3366 7.71512 13.8598Z" fill="url(#paint3_radial_71_12)"/>
</g>
<path d="M7.12165 18.9369C8.54598 18.5307 9.29771 16.906 9.49553 16.3983C9.49553 16.3983 10.089 16.3983 10.6825 16.906C10.089 17.4137 8.90206 18.4291 7.12165 18.9369Z" fill="#4A7C3B"/>
<path d="M7.12165 14.1623C7.71512 15.3829 9.47618 16.5773 10.089 16.6848C10.089 16.6848 8.51294 16.5732 8.30859 16.3984C7.71512 15.8906 7.12165 15.3828 7.12165 14.1623Z" fill="#4A7C3B"/>
<path d="M13.0564 21.4755C16.0237 20.4601 16.6732 17.1518 16.6172 16.3984C16.6172 16.3984 16.6559 16.0481 17.8041 16.3983C17.2107 18.9369 15.4302 20.9678 13.0564 21.4755Z" fill="#4A7C3B"/>
<path d="M13.1013 13.1768C13.3334 15.0522 15.8497 16.031 16.4625 16.1378C16.4625 16.1378 16.7348 16.2243 16.2309 16.8132C14.3187 16.0081 13.0436 14.6211 13.1013 13.1768Z" fill="#4A7C3B"/>
<path d="M23.1454 15.8906C23.1454 15.8906 23.1455 15.8909 23.1456 15.8914C23.1507 15.8966 23.2299 15.9221 24.3323 15.8906C24.8694 18.4384 23.8856 20.2034 21.8952 21.4211C24.1993 19.5614 23.1641 15.9552 23.1456 15.8914C23.1451 15.8909 23.1454 15.8906 23.1454 15.8906Z" fill="#4A7C3B"/>
<path d="M0.216501 11.4913C0.111325 11.2497 0.0405174 11.0215 0 10.8135C0.0633474 11.0483 0.13571 11.2742 0.216501 11.4913C1.13836 13.6097 4.70056 16.763 13.6498 16.3984C16.9823 16.2626 19.3277 15.4073 21.365 15.3829C26.9467 15.3163 28.4866 16.5695 28.4866 18.4293C27.8931 17.4138 27.8931 16.3984 22.5519 16.3984C21.2249 16.3984 17.2107 16.9061 13.6498 16.9061C10.7881 16.9061 2.40637 17.3783 0.216501 11.4913Z" fill="#4A7C3B"/>
<defs>
<filter id="filter0_i_71_12" x="23.0415" y="18.4125" width="22.3372" height="18.9285" filterUnits="userSpaceOnUse" color-interpolation-filters="sRGB">
<feFlood flood-opacity="0" result="BackgroundImageFix"/>
<feBlend mode="normal" in="SourceGraphic" in2="BackgroundImageFix" result="shape"/>
<feColorMatrix in="SourceAlpha" type="matrix" values="0 0 0 0 0 0 0 0 0 0 0 0 0 0 0 0 0 0 127 0" result="hardAlpha"/>
<feOffset dy="-1"/>
<feGaussianBlur stdDeviation="0.5"/>
<feComposite in2="hardAlpha" operator="arithmetic" k2="-1" k3="1"/>
<feColorMatrix type="matrix" values="0 0 0 0 0.126108 0 0 0 0 0.295833 0 0 0 0 0.075191 0 0 0 0.68 0"/>
<feBlend mode="normal" in2="shape" result="effect1_innerShadow_71_12"/>
</filter>
<filter id="filter1_i_71_12" x="15.3343" y="-1" width="7.14249" height="19.9244" filterUnits="userSpaceOnUse" color-interpolation-filters="sRGB">
<feFlood flood-opacity="0" result="BackgroundImageFix"/>
<feBlend mode="normal" in="SourceGraphic" in2="BackgroundImageFix" result="shape"/>
<feColorMatrix in="SourceAlpha" type="matrix" values="0 0 0 0 0 0 0 0 0 0 0 0 0 0 0 0 0 0 127 0" result="hardAlpha"/>
<feOffset dy="-1"/>
<feGaussianBlur stdDeviation="0.5"/>
<feComposite in2="hardAlpha" operator="arithmetic" k2="-1" k3="1"/>
<feColorMatrix type="matrix" values="0 0 0 0 0.126108 0 0 0 0 0.295833 0 0 0 0 0.075191 0 0 0 0.19 0"/>
<feBlend mode="normal" in2="shape" result="effect1_innerShadow_71_12"/>
</filter>
<filter id="filter2_i_71_12" x="15.3343" y="-1" width="7.14249" height="21.0404" filterUnits="userSpaceOnUse" color-interpolation-filters="sRGB">
<feFlood flood-opacity="0" result="BackgroundImageFix"/>
<feBlend mode="normal" in="SourceGraphic" in2="BackgroundImageFix" result="shape"/>
<feColorMatrix in="SourceAlpha" type="matrix" values="0 0 0 0 0 0 0 0 0 0 0 0 0 0 0 0 0 0 127 0" result="hardAlpha"/>
<feOffset dy="-1"/>
<feGaussianBlur stdDeviation="0.5"/>
<feComposite in2="hardAlpha" operator="arithmetic" k2="-1" k3="1"/>
<feColorMatrix type="matrix" values="0 0 0 0 0.126108 0 0 0 0 0.295833 0 0 0 0 0.075191 0 0 0 0.19 0"/>
<feBlend mode="normal" in2="shape" result="effect1_innerShadow_71_12"/>
</filter>
<filter id="filter3_i_71_12" x="2.95779" y="6.05969" width="57.0422" height="93.9403" filterUnits="userSpaceOnUse" color-interpolation-filters="sRGB">
<feFlood flood-opacity="0" result="BackgroundImageFix"/>
<feBlend mode="normal" in="SourceGraphic" in2="BackgroundImageFix" result="shape"/>
<feColorMatrix in="SourceAlpha" type="matrix" values="0 0 0 0 0 0 0 0 0 0 0 0 0 0 0 0 0 0 127 0" result="hardAlpha"/>
<feOffset dy="-1"/>
<feGaussianBlur stdDeviation="0.5"/>
<feComposite in2="hardAlpha" operator="arithmetic" k2="-1" k3="1"/>
<feColorMatrix type="matrix" values="0 0 0 0 0 0 0 0 0 0 0 0 0 0 0 0 0 0 0.25 0"/>
<feBlend mode="normal" in2="shape" result="effect1_innerShadow_71_12"/>
</filter>
<filter id="filter4_i_71_12" x="0" y="9.81348" width="28.4866" height="12.9285" filterUnits="userSpaceOnUse" color-interpolation-filters="sRGB">
<feFlood flood-opacity="0" result="BackgroundImageFix"/>
<feBlend mode="normal" in="SourceGraphic" in2="BackgroundImageFix" result="shape"/>
<feColorMatrix in="SourceAlpha" type="matrix" values="0 0 0 0 0 0 0 0 0 0 0 0 0 0 0 0 0 0 127 0" result="hardAlpha"/>
<feOffset dy="-1"/>
<feGaussianBlur stdDeviation="0.5"/>
<feComposite in2="hardAlpha" operator="arithmetic" k2="-1" k3="1"/>
<feColorMatrix type="matrix" values="0 0 0 0 0.126108 0 0 0 0 0.295833 0 0 0 0 0.075191 0 0 0 0.19 0"/>
<feBlend mode="normal" in2="shape" result="effect1_innerShadow_71_12"/>
</filter>
<radialGradient id="paint0_radial_71_12" cx="0" cy="0" r="1" gradientUnits="userSpaceOnUse" gradientTransform="translate(26.6464 27.7857) rotate(-43.5803) scale(13.806 28.3189)">
<stop stop-color="#A8F26E"/>
<stop offset="0.484375" stop-color="#76AA4E"/>
<stop offset="1" stop-color="#416624"/>
</radialGradient>
<radialGradient id="paint1_radial_71_12" cx="0" cy="0" r="1" gradientUnits="userSpaceOnUse" gradientTransform="translate(14.6427 13.04) rotate(5.68014) scale(10.8104 18.9543)">
<stop stop-color="#A8F26E"/>
<stop offset="0.484375" stop-color="#76AA4E"/>
<stop offset="1" stop-color="#416624"/>
</radialGradient>
<linearGradient id="paint2_linear_71_12" x1="41.5334" y1="5.5643" x2="34.1583" y2="100.209" gradientUnits="userSpaceOnUse">
<stop stop-color="#A5EF6C"/>
<stop offset="0.178758" stop-color="#4A7C3B"/>
<stop offset="0.383342" stop-color="#7EB653"/>
<stop offset="0.545767" stop-color="#DBDBDB"/>
<stop offset="1" stop-color="#EEEEEE"/>
</linearGradient>
<radialGradient id="paint3_radial_71_12" cx="0" cy="0" r="1" gradientUnits="userSpaceOnUse" gradientTransform="translate(14.8368 13.8598) rotate(101.024) scale(9.31075 22.0072)">
<stop stop-color="#A8F26E"/>
<stop offset="0.484375" stop-color="#76AA4E"/>
<stop offset="1" stop-color="#416624"/>
</radialGradient>
</defs>
</svg>
