<svg width="60" height="100" viewBox="0 0 60 100" fill="none" xmlns="http://www.w3.org/2000/svg">
<path d="M29.0323 88.4517C27.0968 88.4517 25.5397 88.4517 23.7097 88.4517C10.6152 88.4517 0 71.3374 0 50.2259C0 29.1143 10.6152 12.0001 23.7097 12.0001C25.5397 12.0001 27.0968 12 29.0323 12C30.9677 12 34.4603 12.0001 36.2903 12.0001C49.3848 12.0001 60 29.1143 60 50.2259C60 71.3374 49.3848 88.4517 36.2903 88.4517C34.4603 88.4517 30.9677 88.4517 29.0323 88.4517Z" fill="url(#paint0_linear_70_10)"/>
<ellipse cx="23.7097" cy="50.2258" rx="23.7097" ry="38.2258" fill="url(#paint1_linear_70_10)"/>
<ellipse cx="23.7097" cy="50.9763" rx="21.7742" ry="35.1053" fill="url(#paint2_radial_70_10)"/>
<defs>
<linearGradient id="paint0_linear_70_10" x1="31.5" y1="12" x2="32" y2="89" gradientUnits="userSpaceOnUse">
<stop stop-color="#6D5249"/>
<stop offset="0.520833" stop-color="#A2805D"/>
<stop offset="1" stop-color="#53412F"/>
</linearGradient>
<linearGradient id="paint1_linear_70_10" x1="23.7097" y1="12" x2="23.7097" y2="88.4516" gradientUnits="userSpaceOnUse">
<stop stop-color="#80655C"/>
<stop offset="0.520833" stop-color="#A2805D"/>
<stop offset="1" stop-color="#806448"/>
</linearGradient>
<radialGradient id="paint2_radial_70_10" cx="0" cy="0" r="1" gradientUnits="userSpaceOnUse" gradientTransform="translate(24 51) rotate(90.4741) scale(35.0828 20.6038)">
<stop stop-color="#886848"/>
<stop offset="0.270833" stop-color="#AE855D"/>
<stop offset="0.666667" stop-color="#CA9B6D"/>
<stop offset="1" stop-color="#C0916A"/>
</radialGradient>
</defs>
</svg>
