<svg width="60" height="100" viewBox="0 0 60 100" fill="none" xmlns="http://www.w3.org/2000/svg">
<g filter="url(#filter0_ii_29_60)">
<path d="M43.8462 9.69704C44.5895 8.86698 45 7.95586 45 7C45 3.13401 38.2843 0 30 0C21.7157 0 15 3.13401 15 7C15 7.95586 15.4105 8.86698 16.1538 9.69704V88C16.1538 94.6274 22.353 100 30 100C37.647 100 43.8462 94.6274 43.8462 88V9.69704Z" fill="#C4C4C4"/>
</g>
<g filter="url(#filter1_f_29_60)">
<path d="M17.3077 9.00006C17.3077 8.35067 17.3507 7.26879 20.4166 5.78455C31.1539 1.00006 40.9616 6.50006 40.9616 6.50006C40.9616 6.50006 31.1539 2.00006 20.7692 6.50006C18.2462 7.92251 18.4615 8.64456 18.4615 9.50006C18.4615 34.0001 18.4615 57.3439 18.4616 88C18.4616 90 19.6154 93 19.6154 93C19.6154 93 17.3077 91.189 17.3077 88C17.3078 57.1486 17.3077 33.0001 17.3077 9.00006Z" fill="white"/>
</g>
<g filter="url(#filter2_f_29_60)">
<path d="M23.077 9.09328C23.077 8 24.2308 8 24.2308 8C24.2308 8 25.3846 8 25.3846 9.09328C25.3846 34.2045 25.3846 60.7495 25.3846 92.1705C25.3846 96.9084 27.6923 98 27.6923 98C27.6923 98 23.0769 97.0323 23.0769 92.1705C23.077 60.5494 23.0772 33.692 23.077 9.09328Z" fill="white"/>
</g>
<g filter="url(#filter3_f_29_60)">
<path d="M38.0768 8.09328C38.0769 7 34.6154 7 34.6154 7C34.6154 7 31.1539 7 31.1539 8.09328C31.1539 33.2045 31.1539 59.7495 31.1539 91.1705C31.1539 99.5 24.2308 97 24.2308 97C24.2308 97 38.077 102.318 38.0769 91.1705C38.0768 59.5494 38.0761 32.692 38.0768 8.09328Z" fill="white" fill-opacity="0.2"/>
</g>
<g filter="url(#filter4_f_29_60)">
<path d="M39.2308 9C39.2308 7.5 35.7692 6 35.7692 6C35.7692 6 38.077 7.34562 38.077 9.5C38.077 34 38.077 57.3438 38.0769 88C38.0769 90 36.9231 93 36.9231 93C36.9231 93 39.2308 91.189 39.2308 88C39.2307 57.1486 39.2308 33 39.2308 9Z" fill="white"/>
</g>
<defs>
<filter id="filter0_ii_29_60" x="15" y="0" width="30" height="100" filterUnits="userSpaceOnUse" color-interpolation-filters="sRGB">
<feFlood flood-opacity="0" result="BackgroundImageFix"/>
<feBlend mode="normal" in="SourceGraphic" in2="BackgroundImageFix" result="shape"/>
<feColorMatrix in="SourceAlpha" type="matrix" values="0 0 0 0 0 0 0 0 0 0 0 0 0 0 0 0 0 0 127 0" result="hardAlpha"/>
<feOffset/>
<feGaussianBlur stdDeviation="5"/>
<feComposite in2="hardAlpha" operator="arithmetic" k2="-1" k3="1"/>
<feColorMatrix type="matrix" values="0 0 0 0 1 0 0 0 0 1 0 0 0 0 1 0 0 0 1 0"/>
<feBlend mode="normal" in2="shape" result="effect1_innerShadow_29_60"/>
<feColorMatrix in="SourceAlpha" type="matrix" values="0 0 0 0 0 0 0 0 0 0 0 0 0 0 0 0 0 0 127 0" result="hardAlpha"/>
<feOffset/>
<feGaussianBlur stdDeviation="1.5"/>
<feComposite in2="hardAlpha" operator="arithmetic" k2="-1" k3="1"/>
<feColorMatrix type="matrix" values="0 0 0 0 1 0 0 0 0 1 0 0 0 0 1 0 0 0 1 0"/>
<feBlend mode="normal" in2="effect1_innerShadow_29_60" result="effect2_innerShadow_29_60"/>
</filter>
<filter id="filter1_f_29_60" x="16.3077" y="2.82898" width="25.6538" height="91.171" filterUnits="userSpaceOnUse" color-interpolation-filters="sRGB">
<feFlood flood-opacity="0" result="BackgroundImageFix"/>
<feBlend mode="normal" in="SourceGraphic" in2="BackgroundImageFix" result="shape"/>
<feGaussianBlur stdDeviation="0.5" result="effect1_foregroundBlur_29_60"/>
</filter>
<filter id="filter2_f_29_60" x="22.0769" y="7" width="6.61539" height="92" filterUnits="userSpaceOnUse" color-interpolation-filters="sRGB">
<feFlood flood-opacity="0" result="BackgroundImageFix"/>
<feBlend mode="normal" in="SourceGraphic" in2="BackgroundImageFix" result="shape"/>
<feGaussianBlur stdDeviation="0.5" result="effect1_foregroundBlur_29_60"/>
</filter>
<filter id="filter3_f_29_60" x="23.2308" y="6" width="15.8462" height="93.2678" filterUnits="userSpaceOnUse" color-interpolation-filters="sRGB">
<feFlood flood-opacity="0" result="BackgroundImageFix"/>
<feBlend mode="normal" in="SourceGraphic" in2="BackgroundImageFix" result="shape"/>
<feGaussianBlur stdDeviation="0.5" result="effect1_foregroundBlur_29_60"/>
</filter>
<filter id="filter4_f_29_60" x="33.7693" y="4" width="7.46152" height="91" filterUnits="userSpaceOnUse" color-interpolation-filters="sRGB">
<feFlood flood-opacity="0" result="BackgroundImageFix"/>
<feBlend mode="normal" in="SourceGraphic" in2="BackgroundImageFix" result="shape"/>
<feGaussianBlur stdDeviation="1" result="effect1_foregroundBlur_29_60"/>
</filter>
</defs>
</svg>
