<svg width="60" height="101" viewBox="0 0 60 101" fill="none" xmlns="http://www.w3.org/2000/svg">
<g clip-path="url(#clip0_29_102)">
<g filter="url(#filter0_i_29_102)">
<path d="M26.6135 50.8437C26.6135 50.8437 29.6508 12.6409 30.2766 4.59889C30.5113 1.58313 31.5451 0.19422 34.5451 0.19422C38.0451 0.19422 38.4519 1.68118 38.2664 4.1938C37.6727 12.2342 35.0267 48.9152 34.6539 51.4373C34.2811 53.9594 33.2639 63.8982 32.942 67.044C32.2724 73.5863 30.4085 86.1969 29.587 89.743C28.6773 93.6702 27.8634 96.5215 26.9406 98.0702C26.0178 99.6189 25.5451 100.194 24.5451 100.194C23.5451 100.194 23.9697 98.7215 24.8925 97.1728C25.6164 95.9578 25.7812 92.4392 26.3377 84.9013C26.6345 80.8812 26.7035 72.3667 26.425 66.8738C26.2022 62.4794 26.2914 54.3645 26.6135 50.8437Z" fill="url(#paint0_linear_29_102)"/>
</g>
<g filter="url(#filter1_i_29_102)">
<path d="M23.5451 50.1942C23.5451 50.1942 28.5128 12.1942 29.5451 4.19421C29.9322 1.19421 31.0451 0.194214 34.0451 0.194214C37.5451 0.194214 37.8576 1.69421 37.5451 4.19421C36.5451 12.1942 32.0451 48.6942 31.5451 51.1942C31.0451 53.6942 29.5259 63.5687 29.0451 66.6942C28.0451 73.1942 25.5451 85.6942 24.5451 89.1942C23.4377 93.0702 21.0451 96.6942 20.0451 98.1942C19.0451 99.6942 18.5451 100.194 17.5451 100.194C16.5451 100.194 17.0451 98.6942 18.0451 97.1942C18.8295 96.0175 20.6076 91.6942 21.5451 84.1942C22.0451 80.1942 22.5451 71.6942 22.5451 66.1942C22.5451 61.7942 23.0451 53.6942 23.5451 50.1942Z" fill="#C9C2B2"/>
</g>
<mask id="mask0_29_102" style="mask-type:alpha" maskUnits="userSpaceOnUse" x="17" y="0" width="21" height="101">
<path d="M23.5451 50.1942C23.5451 50.1942 28.5128 12.1942 29.5451 4.19421C29.9322 1.19421 31.0451 0.194214 34.0451 0.194214C37.5451 0.194214 37.8576 1.69421 37.5451 4.19421C36.5451 12.1942 32.0451 48.6942 31.5451 51.1942C31.0451 53.6942 29.5259 63.5687 29.0451 66.6942C28.0451 73.1942 25.5451 85.6942 24.5451 89.1942C23.4377 93.0702 21.0451 96.6942 20.0451 98.1942C19.0451 99.6942 18.5451 100.194 17.5451 100.194C16.5451 100.194 17.0451 98.6942 18.0451 97.1942C18.8295 96.0175 20.6076 91.6942 21.5451 84.1942C22.0451 80.1942 22.5451 71.6942 22.5451 66.1942C22.5451 61.7942 23.0451 53.6942 23.5451 50.1942Z" fill="#C9C2B2"/>
</mask>
<g mask="url(#mask0_29_102)">
<g filter="url(#filter2_f_29_102)">
<path d="M22.8743 46.2942L32.8134 47.396" stroke="#664226" stroke-width="0.2"/>
<path d="M22.7641 47.2881L32.7032 48.3899" stroke="#664226" stroke-width="0.2"/>
<path d="M22.654 48.282L32.5931 49.3838" stroke="#664226" stroke-width="0.2"/>
<path d="M22.5438 49.2759L32.4829 50.3777" stroke="#664226" stroke-width="0.2"/>
<path d="M22.4336 50.2698L32.3727 51.3716" stroke="#664226" stroke-width="0.2"/>
<path d="M22.3234 51.2638L32.2625 52.3657" stroke="#664226" stroke-width="0.2"/>
<path d="M22.2132 52.2577L32.1523 53.3595" stroke="#664226" stroke-width="0.2"/>
<path d="M22.103 53.2516L32.0421 54.3534" stroke="#664226" stroke-width="0.2"/>
<path d="M21.9928 54.2455L31.9319 55.3473" stroke="#664226" stroke-width="0.2"/>
<path d="M21.8827 55.2394L31.8218 56.3412" stroke="#664226" stroke-width="0.2"/>
<path d="M21.7725 56.2333L31.7116 57.3351" stroke="#664226" stroke-width="0.2"/>
<path d="M21.6623 57.2272L31.6014 58.329" stroke="#664226" stroke-width="0.2"/>
<path d="M21.5521 58.2211L31.4912 59.3229" stroke="#664226" stroke-width="0.2"/>
<path d="M21.4419 59.2151L31.381 60.3169" stroke="#664226" stroke-width="0.2"/>
<path d="M21.3317 60.209L31.2708 61.3108" stroke="#664226" stroke-width="0.2"/>
<path d="M21.2215 61.2029L31.1606 62.3047" stroke="#664226" stroke-width="0.2"/>
<path d="M21.1114 62.1968L31.0505 63.2986" stroke="#664226" stroke-width="0.2"/>
<path d="M21.0012 63.1907L30.9403 64.2925" stroke="#664226" stroke-width="0.2"/>
<path d="M20.891 64.1846L30.8301 65.2864" stroke="#664226" stroke-width="0.2"/>
<path d="M20.7808 65.1785L30.7199 66.2803" stroke="#664226" stroke-width="0.2"/>
<path d="M20.6706 66.1724L30.6097 67.2742" stroke="#664226" stroke-width="0.2"/>
<path d="M20.5604 67.1663L30.4995 68.2681" stroke="#664226" stroke-width="0.2"/>
<path d="M20.4502 68.1603L30.3893 69.2621" stroke="#664226" stroke-width="0.2"/>
<path d="M20.3401 69.1542L30.2792 70.256" stroke="#664226" stroke-width="0.2"/>
<path d="M20.2299 70.1481L30.169 71.2499" stroke="#664226" stroke-width="0.2"/>
<path d="M20.1197 71.142L30.0588 72.2438" stroke="#664226" stroke-width="0.2"/>
<path d="M20.0095 72.1359L29.9486 73.2377" stroke="#664226" stroke-width="0.2"/>
<path d="M19.8993 73.1298L29.8384 74.2316" stroke="#664226" stroke-width="0.2"/>
<path d="M19.7891 74.1237L29.7282 75.2255" stroke="#664226" stroke-width="0.2"/>
<path d="M19.6789 75.1176L29.618 76.2194" stroke="#664226" stroke-width="0.2"/>
<path d="M19.5688 76.1116L29.5079 77.2134" stroke="#664226" stroke-width="0.2"/>
<path d="M19.4586 77.1055L29.3977 78.2073" stroke="#664226" stroke-width="0.2"/>
<path d="M19.3484 78.0994L29.2875 79.2012" stroke="#664226" stroke-width="0.2"/>
<path d="M19.2382 79.0933L29.1773 80.1951" stroke="#664226" stroke-width="0.2"/>
<path d="M19.128 80.0872L29.0671 81.189" stroke="#664226" stroke-width="0.2"/>
</g>
</g>
<path d="M29.7513 37.7956L29.7504 37.8907C30.1245 37.8408 30.4526 37.6296 30.6952 37.4226C30.936 37.2171 31.1033 37.0064 31.1602 36.9347L31.1622 36.9322L31.1625 36.9319C31.5833 36.3987 31.7458 35.8468 31.809 35.5768C31.8201 35.5295 31.7937 35.4867 31.7468 35.4762C31.6999 35.4657 31.6467 35.4905 31.6214 35.5346C31.1302 36.3922 30.3753 36.9523 29.6597 37.0136L29.6597 37.0136C29.3769 37.0379 29.1394 36.9811 28.9486 36.8955C29.1408 36.9264 29.3417 36.9291 29.5473 36.9026C30.0163 36.842 30.4876 36.6323 30.9101 36.3003C30.9525 36.2669 30.9663 36.2124 30.9423 36.1733C30.8903 36.0885 30.7429 35.8603 30.4902 35.6524C30.2373 35.4445 29.8745 35.2532 29.3922 35.2516L29.3921 35.2516C28.6066 35.2495 27.9552 35.7518 27.686 35.9595L27.6824 35.9622L27.6824 35.9623C27.3842 36.1925 27.1098 36.4687 26.8688 36.7804C26.8464 36.8095 26.8401 36.8453 26.8522 36.8749C26.8644 36.9045 26.8932 36.9235 26.9282 36.925C27.1716 36.9356 27.407 36.9794 27.6301 37.0557L27.6302 37.0557C27.8256 37.1222 28.003 37.2228 28.3682 37.432C28.4702 37.4904 28.5552 37.541 28.6292 37.5851C28.8783 37.7334 29.0028 37.8074 29.2261 37.8553C29.357 37.8846 29.5277 37.9208 29.7506 37.8907L29.7513 37.7956ZM29.7513 37.7956C30.431 37.7047 30.97 37.0258 31.0822 36.8845L31.0839 36.8823L27.677 36.9647C27.8822 37.0345 28.0676 37.14 28.4303 37.3478C28.5374 37.4092 28.6251 37.4613 28.7002 37.506C28.9448 37.6515 29.0549 37.7169 29.2628 37.7614C29.3923 37.7904 29.5483 37.823 29.7513 37.7956ZM27.022 36.7358C27.2386 36.4698 27.4801 36.2332 27.7395 36.0329C28.0086 35.8254 28.6313 35.3457 29.3765 35.3477L27.022 36.7358ZM27.022 36.7358C27.004 36.7347 26.986 36.7337 26.9679 36.7329L26.9481 36.829L27.0273 36.8776C27.0381 36.8637 27.0489 36.8499 27.0598 36.8361L27.022 36.7358Z" stroke="#4A390E" stroke-width="0.2" stroke-linejoin="round"/>
<path d="M28.8652 37.4596C28.8981 37.4527 28.9302 37.461 28.9512 37.4818C29.131 37.6598 29.3671 37.7485 29.6239 37.7391L29.6122 37.8352L29.6707 37.9047C29.6275 37.939 29.5848 37.9743 29.5426 38.0106C29.5726 37.9925 29.6028 37.9748 29.633 37.9576L28.8652 37.4596ZM28.8652 37.4596C28.8322 37.4666 28.8024 37.4878 28.7852 37.5166M28.8652 37.4596L28.7852 37.5166M28.7852 37.5166C28.4508 38.077 28.2139 38.6901 28.0913 39.3118C28.0813 39.3629 28.1147 39.4065 28.1675 39.4108M28.7852 37.5166L28.1675 39.4108M28.1675 39.4108C28.6724 39.4526 29.081 39.3129 29.3085 39.2144L29.3086 39.2144M28.1675 39.4108L29.3086 39.2144M29.3086 39.2144L29.3109 39.2134C29.519 39.1232 29.7746 39.0124 30.0345 38.7411L30.0345 38.741M29.3086 39.2144L30.0345 38.741M30.0345 38.741C30.4129 38.3456 30.547 37.8747 30.5913 37.6906C30.599 37.6585 30.5896 37.6273 30.5661 37.6075M30.0345 38.741L30.5661 37.6075M30.5661 37.6075C30.5427 37.5878 30.5084 37.582 30.4747 37.5922M30.5661 37.6075L30.4747 37.5922M30.4747 37.5922C30.1895 37.6786 29.9071 37.8013 29.633 37.9576L30.4747 37.5922Z" stroke="#4A390E" stroke-width="0.2" stroke-linejoin="round"/>
<mask id="path-41-outside-1_29_102" maskUnits="userSpaceOnUse" x="27.9291" y="5.40067" width="7.7681" height="29.2741" fill="black">
<rect fill="white" x="27.9291" y="5.40067" width="7.7681" height="29.2741"/>
<path d="M29.2143 32.3488C29.2399 32.1552 29.2943 31.9918 29.3776 31.8588C29.4611 31.7237 29.5673 31.6255 29.6962 31.5641C29.825 31.5028 29.9707 31.4829 30.133 31.5043C30.2933 31.5255 30.4288 31.5826 30.5393 31.6756C30.6478 31.7684 30.7248 31.8908 30.7704 32.043C30.8141 32.1928 30.8232 32.3646 30.7976 32.5582L30.7393 32.9985L31.342 33.0782L31.2751 33.5841L29.0891 33.295L29.2143 32.3488ZM30.3816 32.5318C30.4017 32.3798 30.3847 32.26 30.3307 32.1723C30.2745 32.0844 30.1861 32.0325 30.0653 32.0165C29.9425 32.0002 29.8435 32.0274 29.7685 32.098C29.6915 32.1683 29.6429 32.2794 29.6228 32.4314L29.5682 32.8436L30.3271 32.944L30.3816 32.5318Z"/>
<path d="M31.7494 30.2862C31.7194 30.5132 31.6434 30.7118 31.5213 30.882C31.3995 31.0502 31.2463 31.1751 31.0619 31.2566C30.8756 31.3357 30.6752 31.3611 30.4608 31.3328C30.2463 31.3044 30.0605 31.2279 29.9033 31.1033C29.7443 30.9764 29.6278 30.8159 29.5539 30.6218C29.4803 30.4257 29.4585 30.2141 29.4885 29.9872C29.5185 29.7603 29.5944 29.5627 29.7162 29.3945C29.838 29.2263 29.9922 29.1016 30.1788 29.0204C30.3633 28.9389 30.5627 28.9123 30.7772 28.9407C30.9916 28.969 31.1783 29.0467 31.3374 29.1736C31.4943 29.3003 31.6097 29.4607 31.6836 29.6548C31.7575 29.8488 31.7795 30.0593 31.7494 30.2862ZM31.3185 30.2292C31.3356 30.1002 31.3218 29.9797 31.2773 29.8679C31.2307 29.7558 31.1582 29.6636 31.0597 29.5913C30.9615 29.5169 30.8448 29.4707 30.7094 29.4528C30.5741 29.4349 30.4494 29.4491 30.3352 29.4955C30.2213 29.5397 30.1283 29.61 30.0563 29.7064C29.9821 29.8025 29.9365 29.9151 29.9194 30.0442C29.9024 30.1733 29.9171 30.2939 29.9638 30.4059C30.0083 30.5177 30.0796 30.6109 30.1778 30.6853C30.2763 30.7576 30.3932 30.8027 30.5285 30.8206C30.6638 30.8385 30.7884 30.8254 30.9023 30.7811C31.0165 30.7348 31.1106 30.6636 31.1848 30.5674C31.2569 30.4711 31.3014 30.3583 31.3185 30.2292Z"/>
<path d="M32.0959 27.6668C32.0665 27.8896 31.9919 28.0852 31.8721 28.2536C31.7506 28.4197 31.5976 28.5435 31.4131 28.6251C31.2268 28.7042 31.0254 28.7295 30.8089 28.7008C30.5924 28.6722 30.4055 28.5956 30.2483 28.471C30.0892 28.344 29.9737 28.1847 29.9016 27.993C29.8277 27.7989 29.8056 27.5895 29.8354 27.3646C29.8604 27.1752 29.9163 27.0089 30.003 26.8657C30.09 26.7204 30.2029 26.604 30.3416 26.5165L30.5984 26.8809C30.4081 27.0061 30.2985 27.178 30.2696 27.3966C30.2517 27.532 30.266 27.6567 30.3123 27.7709C30.3565 27.8848 30.4278 27.9789 30.5259 28.0533C30.6244 28.1257 30.7413 28.1708 30.8766 28.1887C31.012 28.2066 31.1366 28.1934 31.2505 28.1492C31.3646 28.1028 31.4589 28.0306 31.5333 27.9324C31.6057 27.8339 31.6508 27.717 31.6687 27.5817C31.6976 27.3631 31.6354 27.1685 31.4822 26.9978L31.8249 26.7127C31.9382 26.8336 32.0179 26.9754 32.0641 27.1383C32.1104 27.3012 32.121 27.4773 32.0959 27.6668Z"/>
<path d="M30.6658 24.5456L30.5733 25.2451L32.3471 25.4797L32.281 25.9794L30.5072 25.7448L30.4151 26.4412L30.0029 26.3867L30.2536 24.4911L30.6658 24.5456Z"/>
<path d="M32.653 23.455C32.623 23.6819 32.5469 23.8805 32.4249 24.0508C32.303 24.219 32.1499 24.3438 31.9654 24.4253C31.7791 24.5045 31.5788 24.5299 31.3643 24.5015C31.1499 24.4732 30.9641 24.3967 30.8068 24.2721C30.6478 24.1451 30.5313 23.9846 30.4575 23.7906C30.3838 23.5944 30.362 23.3829 30.392 23.1559C30.4221 22.929 30.498 22.7314 30.6198 22.5633C30.7416 22.3951 30.8958 22.2704 31.0823 22.1891C31.2668 22.1076 31.4663 22.081 31.6807 22.1094C31.8952 22.1378 32.0819 22.2154 32.2409 22.3424C32.3979 22.469 32.5133 22.6294 32.5872 22.8235C32.6611 23.0176 32.683 23.2281 32.653 23.455ZM32.222 23.398C32.2391 23.2689 32.2254 23.1485 32.1809 23.0367C32.1343 22.9246 32.0617 22.8324 31.9633 22.76C31.8651 22.6856 31.7483 22.6395 31.613 22.6216C31.4777 22.6037 31.3529 22.6179 31.2388 22.6642C31.1249 22.7084 31.0319 22.7788 30.9598 22.8752C30.8857 22.9713 30.8401 23.0839 30.823 23.2129C30.8059 23.342 30.8207 23.4626 30.8673 23.5747C30.9118 23.6865 30.9832 23.7796 31.0814 23.854C31.1798 23.9263 31.2967 23.9715 31.4321 23.9894C31.5674 24.0073 31.692 23.9941 31.8059 23.9498C31.92 23.9035 32.0142 23.8323 32.0883 23.7362C32.1604 23.6398 32.205 23.5271 32.222 23.398Z"/>
<path d="M32.0566 20.9015L32.0103 21.2512L32.891 21.3677L32.8244 21.8705L30.6384 21.5814L30.7049 21.0786L31.5887 21.1955L31.6366 20.8332L30.8289 20.1417L30.8995 19.6077L31.8604 20.4625L33.0884 19.875L33.0124 20.4496L32.0566 20.9015Z"/>
<path d="M33.132 16.3742L33.997 16.4886L33.9351 16.9571L33.4823 16.8972L33.2782 18.4399L33.731 18.4997L33.6691 18.9682L32.8044 18.8506L32.816 18.7632C32.8292 18.6315 32.7457 18.5262 32.5655 18.4473C32.3853 18.3684 32.1221 18.2997 31.7761 18.2412L31.0955 18.1257L31.3177 16.4456L33.0915 16.6802L33.132 16.3742ZM31.882 17.8008C32.1409 17.8456 32.3566 17.8964 32.5292 17.9531C32.6996 18.0096 32.822 18.0776 32.8961 18.1574L33.0254 17.1799L31.6639 16.9998L31.5647 17.7493L31.882 17.8008Z"/>
<path d="M33.7647 15.0501C33.7347 15.277 33.6586 15.4756 33.5366 15.6459C33.4147 15.8141 33.2616 15.9389 33.0771 16.0204C32.8908 16.0996 32.6905 16.125 32.476 16.0966C32.2616 16.0683 32.0758 15.9918 31.9185 15.8672C31.7595 15.7402 31.643 15.5797 31.5691 15.3857C31.4955 15.1895 31.4737 14.978 31.5037 14.751C31.5338 14.5241 31.6097 14.3266 31.7315 14.1584C31.8533 13.9902 32.0075 13.8655 32.194 13.7842C32.3785 13.7027 32.578 13.6761 32.7924 13.7045C33.0069 13.7329 33.1936 13.8105 33.3526 13.9375C33.5096 14.0642 33.625 14.2245 33.6989 14.4186C33.7728 14.6127 33.7947 14.8232 33.7647 15.0501ZM33.3337 14.9931C33.3508 14.864 33.3371 14.7436 33.2926 14.6318C33.246 14.5197 33.1734 14.4275 33.075 14.3551C32.9768 14.2807 32.86 14.2346 32.7247 14.2167C32.5894 14.1988 32.4646 14.213 32.3504 14.2593C32.2366 14.3036 32.1436 14.3739 32.0715 14.4703C31.9974 14.5664 31.9518 14.679 31.9347 14.808C31.9176 14.9371 31.9324 15.0577 31.979 15.1698C32.0235 15.2816 32.0949 15.3747 32.1931 15.4491C32.2915 15.5215 32.4084 15.5666 32.5438 15.5845C32.6791 15.6024 32.8037 15.5892 32.9176 15.5449C33.0317 15.4986 33.1259 15.4274 33.2 15.3313C33.2721 15.2349 33.3167 15.1222 33.3337 14.9931Z"/>
<path d="M31.751 13.1702L31.9843 11.4058L32.3872 11.4591L32.2203 12.7207L32.67 12.7802L32.7501 12.1744C32.7851 11.91 32.8669 11.7164 32.9954 11.5935C33.1242 11.4686 33.2927 11.42 33.5008 11.4475C33.7194 11.4764 33.8789 11.5759 33.9793 11.7459C34.0797 11.916 34.1113 12.1415 34.0741 12.4226L33.937 13.4594L31.751 13.1702ZM33.6956 12.4011C33.7127 12.272 33.7008 12.1698 33.6599 12.0945C33.617 12.0189 33.5466 11.9747 33.4487 11.9617C33.2572 11.9364 33.1438 12.057 33.1085 12.3234L33.0416 12.8294L33.6287 12.907L33.6956 12.4011Z"/>
<path d="M32.1811 9.91844C32.2067 9.72482 32.2611 9.56149 32.3444 9.42846C32.4279 9.29335 32.5341 9.19512 32.663 9.13378C32.7918 9.07245 32.9375 9.05252 33.0998 9.074C33.2602 9.09521 33.3956 9.15231 33.5062 9.24531C33.6146 9.33804 33.6916 9.46049 33.7372 9.61268C33.7809 9.76251 33.79 9.93424 33.7644 10.1279L33.7061 10.5682L34.3088 10.6479L34.2419 11.1538L32.0559 10.8647L32.1811 9.91844ZM33.3484 10.1014C33.3685 9.94946 33.3515 9.82964 33.2975 9.74199C33.2413 9.65407 33.1529 9.60212 33.0321 9.58615C32.9093 9.5699 32.8104 9.59707 32.7354 9.66765C32.6583 9.73795 32.6097 9.84909 32.5896 10.0011L32.535 10.4133L33.2939 10.5137L33.3484 10.1014Z"/>
<path d="M34.2496 7.49208L34.1154 8.50702L34.5582 8.76259L34.4896 9.28099L32.4325 8.01752L32.4986 7.51786L34.8139 6.82954L34.7437 7.36042L34.2496 7.49208ZM33.8444 7.60055L32.9617 7.83648L33.7527 8.29382L33.8444 7.60055Z"/>
</mask>
<path d="M29.2143 32.3488C29.2399 32.1552 29.2943 31.9918 29.3776 31.8588C29.4611 31.7237 29.5673 31.6255 29.6962 31.5641C29.825 31.5028 29.9707 31.4829 30.133 31.5043C30.2933 31.5255 30.4288 31.5826 30.5393 31.6756C30.6478 31.7684 30.7248 31.8908 30.7704 32.043C30.8141 32.1928 30.8232 32.3646 30.7976 32.5582L30.7393 32.9985L31.342 33.0782L31.2751 33.5841L29.0891 33.295L29.2143 32.3488ZM30.3816 32.5318C30.4017 32.3798 30.3847 32.26 30.3307 32.1723C30.2745 32.0844 30.1861 32.0325 30.0653 32.0165C29.9425 32.0002 29.8435 32.0274 29.7685 32.098C29.6915 32.1683 29.6429 32.2794 29.6228 32.4314L29.5682 32.8436L30.3271 32.944L30.3816 32.5318Z" stroke="#4A390E" stroke-width="0.4" stroke-linejoin="round" mask="url(#path-41-outside-1_29_102)"/>
<path d="M31.7494 30.2862C31.7194 30.5132 31.6434 30.7118 31.5213 30.882C31.3995 31.0502 31.2463 31.1751 31.0619 31.2566C30.8756 31.3357 30.6752 31.3611 30.4608 31.3328C30.2463 31.3044 30.0605 31.2279 29.9033 31.1033C29.7443 30.9764 29.6278 30.8159 29.5539 30.6218C29.4803 30.4257 29.4585 30.2141 29.4885 29.9872C29.5185 29.7603 29.5944 29.5627 29.7162 29.3945C29.838 29.2263 29.9922 29.1016 30.1788 29.0204C30.3633 28.9389 30.5627 28.9123 30.7772 28.9407C30.9916 28.969 31.1783 29.0467 31.3374 29.1736C31.4943 29.3003 31.6097 29.4607 31.6836 29.6548C31.7575 29.8488 31.7795 30.0593 31.7494 30.2862ZM31.3185 30.2292C31.3356 30.1002 31.3218 29.9797 31.2773 29.8679C31.2307 29.7558 31.1582 29.6636 31.0597 29.5913C30.9615 29.5169 30.8448 29.4707 30.7094 29.4528C30.5741 29.4349 30.4494 29.4491 30.3352 29.4955C30.2213 29.5397 30.1283 29.61 30.0563 29.7064C29.9821 29.8025 29.9365 29.9151 29.9194 30.0442C29.9024 30.1733 29.9171 30.2939 29.9638 30.4059C30.0083 30.5177 30.0796 30.6109 30.1778 30.6853C30.2763 30.7576 30.3932 30.8027 30.5285 30.8206C30.6638 30.8385 30.7884 30.8254 30.9023 30.7811C31.0165 30.7348 31.1106 30.6636 31.1848 30.5674C31.2569 30.4711 31.3014 30.3583 31.3185 30.2292Z" stroke="#4A390E" stroke-width="0.4" stroke-linejoin="round" mask="url(#path-41-outside-1_29_102)"/>
<path d="M32.0959 27.6668C32.0665 27.8896 31.9919 28.0852 31.8721 28.2536C31.7506 28.4197 31.5976 28.5435 31.4131 28.6251C31.2268 28.7042 31.0254 28.7295 30.8089 28.7008C30.5924 28.6722 30.4055 28.5956 30.2483 28.471C30.0892 28.344 29.9737 28.1847 29.9016 27.993C29.8277 27.7989 29.8056 27.5895 29.8354 27.3646C29.8604 27.1752 29.9163 27.0089 30.003 26.8657C30.09 26.7204 30.2029 26.604 30.3416 26.5165L30.5984 26.8809C30.4081 27.0061 30.2985 27.178 30.2696 27.3966C30.2517 27.532 30.266 27.6567 30.3123 27.7709C30.3565 27.8848 30.4278 27.9789 30.5259 28.0533C30.6244 28.1257 30.7413 28.1708 30.8766 28.1887C31.012 28.2066 31.1366 28.1934 31.2505 28.1492C31.3646 28.1028 31.4589 28.0306 31.5333 27.9324C31.6057 27.8339 31.6508 27.717 31.6687 27.5817C31.6976 27.3631 31.6354 27.1685 31.4822 26.9978L31.8249 26.7127C31.9382 26.8336 32.0179 26.9754 32.0641 27.1383C32.1104 27.3012 32.121 27.4773 32.0959 27.6668Z" stroke="#4A390E" stroke-width="0.4" stroke-linejoin="round" mask="url(#path-41-outside-1_29_102)"/>
<path d="M30.6658 24.5456L30.5733 25.2451L32.3471 25.4797L32.281 25.9794L30.5072 25.7448L30.4151 26.4412L30.0029 26.3867L30.2536 24.4911L30.6658 24.5456Z" stroke="#4A390E" stroke-width="0.4" stroke-linejoin="round" mask="url(#path-41-outside-1_29_102)"/>
<path d="M32.653 23.455C32.623 23.6819 32.5469 23.8805 32.4249 24.0508C32.303 24.219 32.1499 24.3438 31.9654 24.4253C31.7791 24.5045 31.5788 24.5299 31.3643 24.5015C31.1499 24.4732 30.9641 24.3967 30.8068 24.2721C30.6478 24.1451 30.5313 23.9846 30.4575 23.7906C30.3838 23.5944 30.362 23.3829 30.392 23.1559C30.4221 22.929 30.498 22.7314 30.6198 22.5633C30.7416 22.3951 30.8958 22.2704 31.0823 22.1891C31.2668 22.1076 31.4663 22.081 31.6807 22.1094C31.8952 22.1378 32.0819 22.2154 32.2409 22.3424C32.3979 22.469 32.5133 22.6294 32.5872 22.8235C32.6611 23.0176 32.683 23.2281 32.653 23.455ZM32.222 23.398C32.2391 23.2689 32.2254 23.1485 32.1809 23.0367C32.1343 22.9246 32.0617 22.8324 31.9633 22.76C31.8651 22.6856 31.7483 22.6395 31.613 22.6216C31.4777 22.6037 31.3529 22.6179 31.2388 22.6642C31.1249 22.7084 31.0319 22.7788 30.9598 22.8752C30.8857 22.9713 30.8401 23.0839 30.823 23.2129C30.8059 23.342 30.8207 23.4626 30.8673 23.5747C30.9118 23.6865 30.9832 23.7796 31.0814 23.854C31.1798 23.9263 31.2967 23.9715 31.4321 23.9894C31.5674 24.0073 31.692 23.9941 31.8059 23.9498C31.92 23.9035 32.0142 23.8323 32.0883 23.7362C32.1604 23.6398 32.205 23.5271 32.222 23.398Z" stroke="#4A390E" stroke-width="0.4" stroke-linejoin="round" mask="url(#path-41-outside-1_29_102)"/>
<path d="M32.0566 20.9015L32.0103 21.2512L32.891 21.3677L32.8244 21.8705L30.6384 21.5814L30.7049 21.0786L31.5887 21.1955L31.6366 20.8332L30.8289 20.1417L30.8995 19.6077L31.8604 20.4625L33.0884 19.875L33.0124 20.4496L32.0566 20.9015Z" stroke="#4A390E" stroke-width="0.4" stroke-linejoin="round" mask="url(#path-41-outside-1_29_102)"/>
<path d="M33.132 16.3742L33.997 16.4886L33.9351 16.9571L33.4823 16.8972L33.2782 18.4399L33.731 18.4997L33.6691 18.9682L32.8044 18.8506L32.816 18.7632C32.8292 18.6315 32.7457 18.5262 32.5655 18.4473C32.3853 18.3684 32.1221 18.2997 31.7761 18.2412L31.0955 18.1257L31.3177 16.4456L33.0915 16.6802L33.132 16.3742ZM31.882 17.8008C32.1409 17.8456 32.3566 17.8964 32.5292 17.9531C32.6996 18.0096 32.822 18.0776 32.8961 18.1574L33.0254 17.1799L31.6639 16.9998L31.5647 17.7493L31.882 17.8008Z" stroke="#4A390E" stroke-width="0.4" stroke-linejoin="round" mask="url(#path-41-outside-1_29_102)"/>
<path d="M33.7647 15.0501C33.7347 15.277 33.6586 15.4756 33.5366 15.6459C33.4147 15.8141 33.2616 15.9389 33.0771 16.0204C32.8908 16.0996 32.6905 16.125 32.476 16.0966C32.2616 16.0683 32.0758 15.9918 31.9185 15.8672C31.7595 15.7402 31.643 15.5797 31.5691 15.3857C31.4955 15.1895 31.4737 14.978 31.5037 14.751C31.5338 14.5241 31.6097 14.3266 31.7315 14.1584C31.8533 13.9902 32.0075 13.8655 32.194 13.7842C32.3785 13.7027 32.578 13.6761 32.7924 13.7045C33.0069 13.7329 33.1936 13.8105 33.3526 13.9375C33.5096 14.0642 33.625 14.2245 33.6989 14.4186C33.7728 14.6127 33.7947 14.8232 33.7647 15.0501ZM33.3337 14.9931C33.3508 14.864 33.3371 14.7436 33.2926 14.6318C33.246 14.5197 33.1734 14.4275 33.075 14.3551C32.9768 14.2807 32.86 14.2346 32.7247 14.2167C32.5894 14.1988 32.4646 14.213 32.3504 14.2593C32.2366 14.3036 32.1436 14.3739 32.0715 14.4703C31.9974 14.5664 31.9518 14.679 31.9347 14.808C31.9176 14.9371 31.9324 15.0577 31.979 15.1698C32.0235 15.2816 32.0949 15.3747 32.1931 15.4491C32.2915 15.5215 32.4084 15.5666 32.5438 15.5845C32.6791 15.6024 32.8037 15.5892 32.9176 15.5449C33.0317 15.4986 33.1259 15.4274 33.2 15.3313C33.2721 15.2349 33.3167 15.1222 33.3337 14.9931Z" stroke="#4A390E" stroke-width="0.4" stroke-linejoin="round" mask="url(#path-41-outside-1_29_102)"/>
<path d="M31.751 13.1702L31.9843 11.4058L32.3872 11.4591L32.2203 12.7207L32.67 12.7802L32.7501 12.1744C32.7851 11.91 32.8669 11.7164 32.9954 11.5935C33.1242 11.4686 33.2927 11.42 33.5008 11.4475C33.7194 11.4764 33.8789 11.5759 33.9793 11.7459C34.0797 11.916 34.1113 12.1415 34.0741 12.4226L33.937 13.4594L31.751 13.1702ZM33.6956 12.4011C33.7127 12.272 33.7008 12.1698 33.6599 12.0945C33.617 12.0189 33.5466 11.9747 33.4487 11.9617C33.2572 11.9364 33.1438 12.057 33.1085 12.3234L33.0416 12.8294L33.6287 12.907L33.6956 12.4011Z" stroke="#4A390E" stroke-width="0.4" stroke-linejoin="round" mask="url(#path-41-outside-1_29_102)"/>
<path d="M32.1811 9.91844C32.2067 9.72482 32.2611 9.56149 32.3444 9.42846C32.4279 9.29335 32.5341 9.19512 32.663 9.13378C32.7918 9.07245 32.9375 9.05252 33.0998 9.074C33.2602 9.09521 33.3956 9.15231 33.5062 9.24531C33.6146 9.33804 33.6916 9.46049 33.7372 9.61268C33.7809 9.76251 33.79 9.93424 33.7644 10.1279L33.7061 10.5682L34.3088 10.6479L34.2419 11.1538L32.0559 10.8647L32.1811 9.91844ZM33.3484 10.1014C33.3685 9.94946 33.3515 9.82964 33.2975 9.74199C33.2413 9.65407 33.1529 9.60212 33.0321 9.58615C32.9093 9.5699 32.8104 9.59707 32.7354 9.66765C32.6583 9.73795 32.6097 9.84909 32.5896 10.0011L32.535 10.4133L33.2939 10.5137L33.3484 10.1014Z" stroke="#4A390E" stroke-width="0.4" stroke-linejoin="round" mask="url(#path-41-outside-1_29_102)"/>
<path d="M34.2496 7.49208L34.1154 8.50702L34.5582 8.76259L34.4896 9.28099L32.4325 8.01752L32.4986 7.51786L34.8139 6.82954L34.7437 7.36042L34.2496 7.49208ZM33.8444 7.60055L32.9617 7.83648L33.7527 8.29382L33.8444 7.60055Z" stroke="#4A390E" stroke-width="0.4" stroke-linejoin="round" mask="url(#path-41-outside-1_29_102)"/>
</g>
<defs>
<filter id="filter0_i_29_102" x="23.9696" y="0.194214" width="14.3337" height="100" filterUnits="userSpaceOnUse" color-interpolation-filters="sRGB">
<feFlood flood-opacity="0" result="BackgroundImageFix"/>
<feBlend mode="normal" in="SourceGraphic" in2="BackgroundImageFix" result="shape"/>
<feColorMatrix in="SourceAlpha" type="matrix" values="0 0 0 0 0 0 0 0 0 0 0 0 0 0 0 0 0 0 127 0" result="hardAlpha"/>
<feOffset/>
<feGaussianBlur stdDeviation="0.25"/>
<feComposite in2="hardAlpha" operator="arithmetic" k2="-1" k3="1"/>
<feColorMatrix type="matrix" values="0 0 0 0 0.4 0 0 0 0 0.227451 0 0 0 0 0.121569 0 0 0 1 0"/>
<feBlend mode="normal" in2="shape" result="effect1_innerShadow_29_102"/>
</filter>
<filter id="filter1_i_29_102" x="17" y="0.194214" width="20.6382" height="100" filterUnits="userSpaceOnUse" color-interpolation-filters="sRGB">
<feFlood flood-opacity="0" result="BackgroundImageFix"/>
<feBlend mode="normal" in="SourceGraphic" in2="BackgroundImageFix" result="shape"/>
<feColorMatrix in="SourceAlpha" type="matrix" values="0 0 0 0 0 0 0 0 0 0 0 0 0 0 0 0 0 0 127 0" result="hardAlpha"/>
<feOffset/>
<feGaussianBlur stdDeviation="0.25"/>
<feComposite in2="hardAlpha" operator="arithmetic" k2="-1" k3="1"/>
<feColorMatrix type="matrix" values="0 0 0 0 0.4 0 0 0 0 0.227451 0 0 0 0 0.121569 0 0 0 1 0"/>
<feBlend mode="normal" in2="shape" result="effect1_innerShadow_29_102"/>
</filter>
<filter id="filter2_f_29_102" x="19.017" y="46.0948" width="13.9075" height="35.2936" filterUnits="userSpaceOnUse" color-interpolation-filters="sRGB">
<feFlood flood-opacity="0" result="BackgroundImageFix"/>
<feBlend mode="normal" in="SourceGraphic" in2="BackgroundImageFix" result="shape"/>
<feGaussianBlur stdDeviation="0.05" result="effect1_foregroundBlur_29_102"/>
</filter>
<linearGradient id="paint0_linear_29_102" x1="34.5451" y1="35.1942" x2="31.5451" y2="129.694" gradientUnits="userSpaceOnUse">
<stop stop-color="#735A43"/>
<stop offset="0.208333" stop-color="#94704F"/>
<stop offset="1" stop-color="#C9C2B2"/>
</linearGradient>
<clipPath id="clip0_29_102">
<rect width="60" height="100.225" fill="white"/>
</clipPath>
</defs>
</svg>
